<svg id="Layer_1" data-name="Layer 1" xmlns="http://www.w3.org/2000/svg" xmlns:xlink="http://www.w3.org/1999/xlink" viewBox="0 0 305.97 281.93"><defs><linearGradient id="linear-gradient" x1="258.75" y1="49.08" x2="258.75" y2="87.63" gradientUnits="userSpaceOnUse"><stop offset="0" stop-color="#c51162"/><stop offset="1" stop-color="#072759"/></linearGradient><linearGradient id="linear-gradient-2" x1="217.46" y1="113.97" x2="220.75" y2="128.04" gradientTransform="matrix(1.05, -0.21, 0.27, 1.08, -7.89, -3.7)" gradientUnits="userSpaceOnUse"><stop offset="0" stop-color="#f54ea2"/><stop offset="1" stop-color="#ff7676"/></linearGradient><linearGradient id="linear-gradient-3" x1="232.24" y1="215.53" x2="239.99" y2="168.34" gradientUnits="userSpaceOnUse"><stop offset="0" stop-color="#263238"/><stop offset="1" stop-color="#000001"/></linearGradient><linearGradient id="linear-gradient-4" x1="203.84" y1="129.98" x2="203.84" y2="130.08" gradientTransform="translate(82.6 33.24) rotate(22.85)" gradientUnits="userSpaceOnUse"><stop offset="0" stop-color="#ffcdd2"/><stop offset="1" stop-color="#e57373"/></linearGradient><linearGradient id="linear-gradient-5" x1="198.12" y1="141.51" x2="198.07" y2="137.04" xlink:href="#linear-gradient-4"/><linearGradient id="linear-gradient-6" x1="204.29" y1="126.74" x2="204.29" y2="149.44" xlink:href="#linear-gradient-4"/><linearGradient id="linear-gradient-7" x1="244.49" y1="153.56" x2="244.49" y2="85.99" xlink:href="#linear-gradient-3"/><linearGradient id="linear-gradient-8" x1="243.52" y1="240.96" x2="243.52" y2="241.06" gradientTransform="matrix(1, 0, 0, 1, 0, 0)" xlink:href="#linear-gradient-4"/><linearGradient id="linear-gradient-9" x1="237.79" y1="252.49" x2="237.74" y2="248.02" gradientTransform="matrix(1, 0, 0, 1, 0, 0)" xlink:href="#linear-gradient-4"/><linearGradient id="linear-gradient-10" x1="243.96" y1="237.73" x2="243.96" y2="260.42" gradientTransform="matrix(1, 0, 0, 1, 0, 0)" xlink:href="#linear-gradient-4"/><linearGradient id="linear-gradient-11" x1="232.09" y1="99.79" x2="264.84" y2="99.79" gradientTransform="matrix(1, 0, 0, 1, 0, 0)" xlink:href="#linear-gradient-2"/><linearGradient id="linear-gradient-12" x1="-506.92" y1="46.29" x2="-503.08" y2="45.82" gradientTransform="matrix(-0.89, -0.45, -0.45, 0.89, -132.63, -186.13)" gradientUnits="userSpaceOnUse"><stop offset="0" stop-color="#000001"/><stop offset="1" stop-color="#697276"/></linearGradient><linearGradient id="linear-gradient-13" x1="-497.53" y1="53.66" x2="-501.06" y2="41.35" xlink:href="#linear-gradient-12"/><linearGradient id="linear-gradient-14" x1="227.4" y1="83.23" x2="242.37" y2="83.23" gradientTransform="matrix(1, 0, 0, 1, 0, 0)" xlink:href="#linear-gradient-2"/><linearGradient id="linear-gradient-15" x1="53.7" y1="174.3" x2="53.7" y2="148.69" xlink:href="#linear-gradient-3"/><linearGradient id="linear-gradient-16" x1="3.32" y1="119.43" x2="7.67" y2="118.9" gradientTransform="translate(4.5 -17.03) rotate(2.58)" gradientUnits="userSpaceOnUse"><stop offset="0.04" stop-color="#ff5722"/><stop offset="1" stop-color="#ffab91"/></linearGradient><linearGradient id="linear-gradient-17" x1="13.94" y1="127.76" x2="9.95" y2="113.83" xlink:href="#linear-gradient-16"/><linearGradient id="linear-gradient-18" x1="23.33" y1="123.01" x2="44.62" y2="123.01" gradientUnits="userSpaceOnUse"><stop offset="0" stop-color="#f02fc2"/><stop offset="1" stop-color="#6094ea"/></linearGradient><linearGradient id="linear-gradient-19" x1="43.22" y1="58.51" x2="51.97" y2="79.42" xlink:href="#linear-gradient-3"/><linearGradient id="linear-gradient-20" x1="52.74" y1="97.15" x2="52.74" y2="159.39" gradientTransform="matrix(1, 0, 0, 1, 0, 0)" xlink:href="#linear-gradient-2"/><linearGradient id="linear-gradient-21" x1="37.55" y1="116.77" x2="71" y2="116.77" xlink:href="#linear-gradient-18"/><linearGradient id="linear-gradient-22" x1="39.68" y1="231.44" x2="51.8" y2="190.97" xlink:href="#linear-gradient-3"/><linearGradient id="linear-gradient-23" x1="146.56" y1="187.15" x2="146.56" y2="116.13" xlink:href="#linear-gradient-3"/><linearGradient id="linear-gradient-24" x1="-411" y1="92.48" x2="-407.16" y2="92.01" xlink:href="#linear-gradient-12"/><linearGradient id="linear-gradient-25" x1="-401.61" y1="99.84" x2="-405.14" y2="87.53" xlink:href="#linear-gradient-12"/><linearGradient id="linear-gradient-26" x1="147.37" y1="120.29" x2="147.37" y2="22.9" xlink:href="#linear-gradient-3"/><linearGradient id="linear-gradient-27" x1="115.6" y1="84.88" x2="111.67" y2="54.21" gradientTransform="matrix(1, 0, -0.13, 1, 26.33, 0)" gradientUnits="userSpaceOnUse"><stop offset="0" stop-color="#fce38a"/><stop offset="1" stop-color="#f38181"/></linearGradient><linearGradient id="linear-gradient-28" x1="127.84" y1="11.96" x2="153.84" y2="11.96" gradientUnits="userSpaceOnUse"><stop offset="0" stop-color="#ffed45"/><stop offset="0.99" stop-color="#fcb41c"/></linearGradient><linearGradient id="linear-gradient-29" x1="133.91" y1="80.71" x2="133.91" y2="36.54" gradientTransform="matrix(1, 0, 0, 1, 0, 0)" xlink:href="#linear-gradient-27"/></defs><title>home_03</title><path d="M237.8,41c3.47.06,4.9-3.78,7.84-5,4.6-1.85,11-1.42,14.35,2.58.93,1.11,1.64,3.11,2.87,3.88,2,1.22,4,.5,5.79,2.53,4,4.68-2.33,10.94.29,16.31,1.75,3.6,6.85,2.67,9.61,5.25s3.83,6.16,2.14,9.59c-.73,1.48-3.44,4.49-.92,5.68a6.49,6.49,0,0,0,1.54.41c4.85,1,9.61,4,11.73,8.58,5.43,11.69-5.36,21.12-15.41,24.87a34.56,34.56,0,0,1-24.7-.52c-11.81-4.58-26.86-13.08-26.35-27.64.13-3.55,2.91-7.15,1.58-10.68-.87-2.31-2.48-4.19-3.57-6.37A14.69,14.69,0,0,1,223,63a10,10,0,0,1,1.15-4.27c1.39-2.48,4.11-2.76,5.94-4.72a7.64,7.64,0,0,0,2-4.74c.12-1.84-.89-3.58-.23-5.42C232.78,41.48,235.56,40.95,237.8,41Z" style="fill:url(#linear-gradient)"/><polygon points="262.75 86.02 270.76 100.47 266.37 104.3 256.37 90.07 262.75 86.02" style="fill:#f8b7b0"/><path d="M256.37,92.72c.51-.39,7.33-6,7.36-6.88-1.42-.42-.43-.95-.85-1.85-.31-.68-1.42-.49-1.2-1.54-.86-.51-1.17-1.58-1.67-2.41a12.64,12.64,0,0,0-2.66-2.86,6.56,6.56,0,0,0-5.53-1.74c-1.81.26-3.21.68-4.07,2.4-1.06,2.11.45,4.57,1.76,6.64a24.44,24.44,0,0,0,2.13,2.83,1.65,1.65,0,0,1,.54,1.67c.3.23.78.22,1,.45.41.37.2.85.78,1C254,90.94,255.75,92.84,256.37,92.72Z" style="fill:url(#linear-gradient-2)"/><path d="M260.58,129.35c-11.8,4.24-21.9-.11-26.93,6.08-3.23,4-1.74,12.76-2.1,15.18-1.9,12.72,1.67,20.69,4.47,37.06-6.56,3.5-10.93,11.35-11.94,17.06a71.51,71.51,0,0,1-2.73,9.61c-1.94,5.67-4.39,11.78-6,15.5a8.9,8.9,0,0,0,4.82,1.71,110.12,110.12,0,0,1,7.9-14.35c4.91-7.83,10.29-15.64,13.63-23.45,6.37-6.61,13.24-30.21,15-39.18C258,147.61,259.27,137.89,260.58,129.35Z" style="fill:url(#linear-gradient-3)"/><path d="M220,232.2l0,.07A.15.15,0,0,0,220,232.2Z" style="fill:url(#linear-gradient-4)"/><polygon points="211.67 234.23 207.98 245.6 208.54 245.83 212.66 237.38 211.67 234.23" style="fill:url(#linear-gradient-5)"/><path d="M219.46,240.44c.06-3.19-.4-5.52.48-8.16-.08.14-.47.38-2.4-.39-2.48-1-2.31-1.67-2.31-1.67a2.28,2.28,0,0,1-1.21,1.06c1.07,5.32-1.65,10.36.13,15.94.69,2.45,2.4,1.88,4.52,1.62a11.53,11.53,0,0,0-.13-1.15C218,244.94,219.41,243.18,219.46,240.44Z" style="fill:#f8b7b0"/><path d="M214.15,247.2c-1.79-5.58.93-10.61-.13-15.94-.88.34-1.81.19-2.38,1.48-.8,1.78.24,3.06,1,4.64,1.41,2.82.22,5.59,0,8.44-.16,2,.38,2.69,1.81,4.08s2.18,1.28,4.31,2.11c1.87.72,2.94-.44,1.18-1.86-1-.83-1.22-1-1.28-1.32C216.55,249.08,214.85,249.65,214.15,247.2Z" style="fill:url(#linear-gradient-6)"/><path d="M250.73,126.94c-5.61.12-11.17-1.81-16.46-4.08-.25,1.05-10.29,9.8-4.15,27.45C234,166.14,239.27,181,241,193.72c-4.68,5.77-5.66,14.71-4.38,20.36a71.51,71.51,0,0,1,1.22,9.92c.41,6,.53,12.56.53,16.6a8.9,8.9,0,0,0,5.11-.3A110.12,110.12,0,0,1,245.2,224c1.49-9.12,3.41-18.41,3.45-26.9,3.31-8.57,3.79-47.14,4.42-53.63.68-7.06,3.12-2.51,6.12-8.9,1.4-3,1.67-8.37,1.65-9.77A22.31,22.31,0,0,1,250.73,126.94Z" style="fill:url(#linear-gradient-7)"/><path d="M243.51,241s0,.05,0,.08A.15.15,0,0,0,243.51,241Z" style="fill:url(#linear-gradient-8)"/><polygon points="236.66 246.07 237.68 257.98 238.28 257.98 238.79 248.59 236.66 246.07" style="fill:url(#linear-gradient-9)"/><path d="M246.25,248.77c-1.18-3-2.52-4.93-2.73-7.71,0,.16-.29.53-2.36.57-2.67.05-2.78-.65-2.78-.65a2.28,2.28,0,0,1-.7,1.44c3.05,4.49,2.5,10.19,6.31,14.64,1.59,2,2.94.8,4.79-.26a11.53,11.53,0,0,0-.57-1C246.66,253.48,247.26,251.31,246.25,248.77Z" style="fill:#f8b7b0"/><path d="M244,257.06c-3.81-4.45-3.26-10.14-6.31-14.64-.68.65-1.59.87-1.62,2.29,0,1.95,1.41,2.73,2.74,3.88,2.39,2.06,2.38,5.07,3.27,7.78.64,1.93,1.4,2.33,3.25,3.05,1.69.66,2.51.33,4.79.27,2-.06,2.54-1.55.36-2.18-1.27-.37-1.51-.44-1.69-.72C246.92,257.86,245.58,259.05,244,257.06Z" style="fill:url(#linear-gradient-10)"/><path d="M241.27,107.78c.08,1.7-4.74,10.34-7,15.08,2.46,2.86,8.57,4.76,13.44,5,4.06.19,9.13.2,13.18-1.37L259,101.81s8.91-2.69,4.76-9.51c-3.85-6.33-10.11-19-14.33-19a5.33,5.33,0,0,0-4.27-1.63c-4.92.38-7.19,2-9.51,6-2.06,3.54-4.37,8.72-3.25,12.65Z" style="fill:url(#linear-gradient-11)"/><path d="M291.78,89.2h0l14-13.84h0a.39.39,0,0,1,0,.6l-13.4,13.21A.51.51,0,0,1,291.78,89.2Z" style="fill:url(#linear-gradient-12)"/><polygon points="291.79 89.2 282.32 81.49 296.36 67.65 305.82 75.36 291.79 89.2" style="fill:url(#linear-gradient-13)"/><polygon points="292.89 87.31 284.31 80.32 296.3 68.49 304.89 75.49 292.89 87.31" style="fill:#e0f7fa"/><polygon points="244.4 62.98 243.25 72.02 255.56 89.31 251.27 75.27 252.28 68.3 244.4 62.98" style="fill:#f8b7b0"/><path d="M258.23,51.23a7.65,7.65,0,0,1-3,6.64c-1.8,1.38-7.42,3.38-10.26,1.28-.07-.05,0-.15,0-.22h-.06l.05-1.29a1.86,1.86,0,0,0-1.74-1.93h0a1.86,1.86,0,0,0-2,1.69L241,58.82a1.93,1.93,0,0,0,1.77,2,1.21,1.21,0,0,1,1,1.3l-.07.78c-.23,2.71,11.65,9.47,12.9,6.72a71.9,71.9,0,0,0,2.91-13.05,27.19,27.19,0,0,0-.08-4.77C259.09,51.6,258.66,51.41,258.23,51.23Z" style="fill:#f8b7b0"/><path d="M293.09,93l-21.63,11.47c-3.51,2.34-7.63-.49-6.46-4.11A3.86,3.86,0,0,1,267.58,98c12.69-3.89,23.68-7.77,23.68-7.77Z" style="fill:#f8b7b0"/><path d="M296,88.28a2.82,2.82,0,0,0,.34-2.43,1.93,1.93,0,0,0-1.33-.93,5.65,5.65,0,0,0-1.67,0c-1,.08-3.51,3.51-2.08,5.3.44.55,1.14,2.94,1.83,2.83A44.18,44.18,0,0,0,296,88.28Z" style="fill:#f8b7b0"/><path d="M295.5,88c1.22-.31,2.28-7.34,1.63-7-.65,0-1.06,2.89-1.22,3.33C295.48,85.5,294.17,86.67,295.5,88Z" style="fill:#f8b7b0"/><path d="M295.36,88c1-.8.19-4.35-.65-5.2a2,2,0,0,0-2.34.13c.28.61,1,.18,1.4.42s.32.65.37,1.12C294.26,85.76,293.57,87.37,295.36,88Z" style="fill:#f8b7b0"/><path d="M293.45,89.32c1.14-.53,1.25-4.17.65-5.2a2,2,0,0,0-2.29-.45c.12.65.88.41,1.25.76s.15.71.08,1.17C293,86.84,291.89,88.24,293.45,89.32Z" style="fill:#f8b7b0"/><path d="M292.69,88.66c.81-.45.71-3.13.21-3.87a1.45,1.45,0,0,0-1.71-.21c.12.48.67.26,1,.49s.15.52.12.86C292.19,86.86,291.48,87.94,292.69,88.66Z" style="fill:#f8b7b0"/><path d="M213.24,105.59l16.14,20.78-2.8,1.87-23.33-19.78a1.87,1.87,0,0,1-.52-2.56l25.41-22.67,6.73,7.27Z" style="fill:#f8b7b0"/><path d="M234.37,127.28a2.81,2.81,0,0,1,2.06,1.32,1.93,1.93,0,0,1-.16,1.61,5.64,5.64,0,0,1-1.06,1.29c-.72.72-8.2-1-8.62-3.26-.13-.68.56-.84,1.08-1.3C229.33,125.52,232.24,126.72,234.37,127.28Z" style="fill:#f8b7b0"/><path d="M235.86,127.95c1.21.31,2,3.85,1.62,5a2,2,0,0,1-2.16.87c0-.66.78-.57,1.09-1s0-.72-.14-1.16C235.84,130.47,234.53,129.31,235.86,127.95Z" style="fill:#f8b7b0"/><path d="M234.25,128.19c1.21.31,2,3.85,1.62,5a2,2,0,0,1-2.16.87c0-.66.78-.57,1.09-1s0-.72-.14-1.16C234.23,130.71,232.92,129.55,234.25,128.19Z" style="fill:#f8b7b0"/><path d="M233,128.42c1.21.31,2,3.85,1.62,5a2,2,0,0,1-2.16.87c0-.66.78-.57,1.09-1s0-.72-.14-1.16C233,130.94,231.68,129.78,233,128.42Z" style="fill:#f8b7b0"/><path d="M232.23,129.29c.9.23,1.48,2.84,1.19,3.67a1.44,1.44,0,0,1-1.6.64c0-.49.58-.42.8-.72s0-.53-.1-.86C232.21,131.16,231.24,130.3,232.23,129.29Z" style="fill:#f8b7b0"/><path d="M227.57,83.46c.53.46,1.26,1.58,1.86,2.21,1.05,1.1,2.24,2.07,3.24,3.21.52.59,1.77,2.71,2.63,2.66,0-1.43.78-.51,1.53-1,.56-.37,0-1.44,1.12-1.32.23-.89,1.16-1.3,1.81-1.86a9.11,9.11,0,0,0,1.94-2.87,6.06,6.06,0,0,0,0-5.58c-.81-1.75-1.64-3.09-3.56-3.77-2.37-.84-4.27.86-5.87,2.34a17.43,17.43,0,0,0-2.07,2.35c-.48.63-.62.69-1.45.68-.13.31,0,.78-.11,1.06-.23.44-.76.28-.77.87C227.38,82.47,227.26,82.86,227.57,83.46Z" style="fill:url(#linear-gradient-14)"/><polygon points="54.79 248.56 56.26 267.94 60.39 268.56 63.15 248.45 54.79 248.56" style="fill:#f8b7b0"/><polygon points="54.55 245.47 54.64 247.64 63.11 247.64 63.41 245.47 54.55 245.47" style="fill:#b29c88"/><path d="M65.16,232.67c.59-4.23-1.42-8.7-1.82-12.92-.8-8.41.81-16.68,1.33-25.05l.73-11.75c.08-1.28-.27-3.81.31-5a23,23,0,0,0,1.93-10.62c0-.57-.31-8-.92-8l-27-.16.51,14.59c.15,1.69,7,17.86,8.2,24.59.74,4.09,1.42,8.2,2.22,12.29,1.56,8,3.13,16.37,3.46,24.64l0,.63q0,.23,0,.45l0,.44c-1.15,1.81-1.2,2.45-.3,4v.42a1.91,1.91,0,0,0-.35.84,1.78,1.78,0,0,0,.32.76c.16.26.37.55.61.87l0,.4.06,1.39h8.85l.15-1.08a2.09,2.09,0,0,1,.09-.42,2.45,2.45,0,0,0,.91-1.64,2.6,2.6,0,0,0,0-.37,1.66,1.66,0,0,1-.26-.26.93.93,0,0,1-.15-.29,6.05,6.05,0,0,0,.41-3.59l0-.67Z" style="fill:url(#linear-gradient-15)"/><path d="M46.65,280c5.39-2.28,12.86,1.31,17.1-2.51a24.92,24.92,0,0,1-1.14-3.16,68.65,68.65,0,0,1-.32-7.54c-.9.29-1.15.91-2.22,1a9.35,9.35,0,0,1-2.54-.33,6.21,6.21,0,0,0-.6-1.85,16.91,16.91,0,0,0-2.5-.47,47.27,47.27,0,0,1,.91,5c.15,1.93.69,4.11-1,5.36-1.13.85-5.31,2.08-8.45,2.88C46.59,278.57,46.34,279.4,46.65,280Z" style="fill:#303f9f"/><path d="M63.75,277.46c-4.24,3.82-11.71.24-17.1,2.51-.31-.57-.06-1.4-.74-1.6-1.45.37-2.69.64-3.29.74s-2.31,0-2.65.29c-.86.83.14,1.57.93,1.88,3,1.18,7.49.52,10.47-.18,2.39-.56,5-1.28,7.52-.92,1.57.22,3.48,1,4.81-.5A2.26,2.26,0,0,0,63.75,277.46Z" style="fill:#212121"/><path d="M60,273.39a1.53,1.53,0,1,0,1.53,1.53A1.54,1.54,0,0,0,60,273.39Z" style="fill:#212121"/><polygon points="56.77 241.93 72.54 253.29 75.67 250.52 62.06 235.46 56.77 241.93" style="fill:#f8b7b0"/><polygon points="54.25 240.12 55.97 241.45 61.42 234.97 59.95 233.35 54.25 240.12" style="fill:#b29c88"/><path d="M75.56,268.38c1.73-5.59,9.28-9,9.09-14.7a24.92,24.92,0,0,1-3.16-1.16,68.65,68.65,0,0,1-6-4.61c-.36.87,0,1.47-.64,2.36A9.35,9.35,0,0,1,73,252a6.21,6.21,0,0,0-1.8-.73,16.91,16.91,0,0,0-2,1.61,47.27,47.27,0,0,1,4.4,2.52c1.57,1.13,3.59,2.12,3.48,4.2-.08,1.41-1.82,5.4-3.24,8.32C74.45,267.53,74.92,268.26,75.56,268.38Z" style="fill:#303f9f"/><path d="M84.65,253.69c.2,5.7-7.36,9.11-9.09,14.7-.64-.13-1.11-.86-1.7-.47-.65,1.35-1.24,2.47-1.55,3s-1.51,1.75-1.48,2.22c.08,1.19,1.29.9,2,.5,2.85-1.55,5.22-5.39,6.6-8.13,1.11-2.19,2.25-4.66,4.14-6.34,1.18-1.06,3-2,2.72-4C86.2,254.45,85.51,254,84.65,253.69Z" style="fill:#212121"/><path d="M79.11,253.95a1.53,1.53,0,1,0,2.15-.18A1.54,1.54,0,0,0,79.11,253.95Z" style="fill:#212121"/><path d="M19.17,112.88l-1.91,3.27s3.54,2.12,8.33,4.91a38,38,0,0,1,2.14-5.14Z" style="fill:#f8b7b0"/><path d="M11.65,114.56c-.88-.36-1.85-.85-2.1-1.77A2.16,2.16,0,0,1,10,111a6.34,6.34,0,0,1,1.36-1.29c.9-.7,9,2.31,9.15,4.87,0,.78-.67,1-1.39,1.29C17.34,116.63,14,115.49,11.65,114.56Z" style="fill:#f8b7b0"/><path d="M12,113.88c-1.41.06-3.42-3.48-3.36-4.83a2.2,2.2,0,0,1,2-1.64c.22.71-.66.87-.85,1.4s.22.78.53,1.21C11.21,111.15,13,112,12,113.88Z" style="fill:#f8b7b0"/><path d="M10.88,113.86c-1.09.21-3.06-2.31-3.18-3.36A1.73,1.73,0,0,1,9.1,109c.26.53-.41.75-.5,1.19s.26.59.55.88C9.95,111.83,11.43,112.26,10.88,113.86Z" style="fill:#f8b7b0"/><path d="M14.56,113.52c-1.35.41-4.17-2.53-4.45-3.85a2.2,2.2,0,0,1,1.57-2.1c.39.64-.42,1-.48,1.57s.41.71.81,1C13.12,111.08,15.05,111.44,14.56,113.52Z" style="fill:#f8b7b0"/><path d="M14.7,112.4c-1,.23-2.94-2.08-3.08-3.06a1.62,1.62,0,0,1,1.27-1.46c.26.49-.36.72-.43,1.13s.26.54.54.81C13.76,110.53,15.17,110.89,14.7,112.4Z" style="fill:#f8b7b0"/><path d="M6.58,113.05h0L.38,91.64h0a.45.45,0,0,0-.36.58l5.92,20.44A.58.58,0,0,0,6.58,113.05Z" style="fill:url(#linear-gradient-16)"/><polygon points="6.58 113.05 20.19 110.67 13.98 89.25 0.38 91.64 6.58 113.05" style="fill:url(#linear-gradient-17)"/><polygon points="6.53 110.58 18.87 108.42 13.57 90.12 1.23 92.28 6.53 110.58" style="fill:#e0f7fa"/><path d="M19.12,112.67c-.27-2.61-1.61-.56-3.13-5.56-1.28.1-.29,2.6-.26,3.33s-.7,1.57-.62,2.44a2.52,2.52,0,0,0,1.21,1.77c.27.2.66.41.78.74" style="fill:#f8b7b0"/><path d="M42,117.22c-.34-.17-1-.69-1.36-.69-.72,0-.35.23-.81.55s-.1.72-.76.69c-.39,0-.65-.67-1-.8a1.24,1.24,0,0,0-1.67.39c-.66-.25-.75-1.17-1.32-1.39-1-.36-1,.76-1.5.81-.88.09-2.65-3.32-3.46-1-1.29-.37-3.12-.95-4.13-1.33-1.49.36-2.77,4.86-2.69,6.35,0,.57,3.09,2.38,4.07,2.92-1.48,3.12,3.24,1.56,4.3,2.84.3.36,0,1.12.51,1.44s.53-.06,1,0,.65-.28,1.23.16.23.95.54,1.23c.62.57,1.76,0,2.63.38,2,1,4.54,1.22,6.65,1.66l.33.07a43.38,43.38,0,0,0-1.76-14A3.73,3.73,0,0,1,42,117.22Z" style="fill:url(#linear-gradient-18)"/><path d="M64.36,64.42c0,.44-.53.86-.56,1.3s.43.93.37,1.36-.65.78-.74,1.2.3,1,.17,1.4-.75.68-.9,1.08.15,1,0,1.41-.84.56-1,.94,0,1-.23,1.39-.91.43-1.17.78-.14,1-.42,1.35-1,.3-1.27.61-.28,1-.61,1.27-1,.16-1.35.42-.42.94-.78,1.17-1,0-1.39.23-.54.87-.94,1-1-.13-1.41,0-.66.78-1.08.9-1-.27-1.4-.18-.77.68-1.2.74-.92-.4-1.36-.37-.85.56-1.3.56-.86-.53-1.3-.56-.93.43-1.36.37-.78-.65-1.2-.74-1,.3-1.4.17-.68-.75-1.08-.9-1,.15-1.41,0-.56-.84-.94-1-1,0-1.39-.23-.43-.91-.78-1.17-1-.14-1.35-.42-.3-1-.61-1.27-1-.28-1.27-.61-.16-1-.42-1.35-.94-.42-1.17-.78,0-1-.23-1.39-.87-.54-1-.94.13-1,0-1.41-.78-.66-.9-1.08.27-1,.18-1.4-.68-.77-.74-1.2.4-.92.37-1.36-.56-.85-.56-1.3.53-.86.56-1.3-.43-.93-.37-1.36.65-.78.74-1.2-.3-1-.17-1.4.75-.68.9-1.08-.15-1,0-1.41.84-.56,1-.94,0-1,.23-1.39.91-.43,1.17-.78.14-1,.42-1.35,1-.3,1.27-.61.28-1,.61-1.27,1-.16,1.35-.42.42-.94.78-1.17,1,0,1.39-.23.54-.87.94-1,1,.13,1.41,0,.66-.78,1.08-.9,1,.27,1.4.18.77-.68,1.2-.74.92.4,1.36.37.85-.56,1.3-.56.86.53,1.3.56.93-.43,1.36-.37.78.65,1.2.74,1-.3,1.4-.17.68.75,1.08.9,1-.15,1.41,0,.56.84.94,1,1,0,1.39.23.43.91.78,1.17,1,.14,1.35.42.3,1,.61,1.27,1,.28,1.27.61.16,1,.42,1.35.94.42,1.17.78,0,1,.23,1.39.87.54,1,.94-.13,1,0,1.41.78.66.9,1.08-.27,1-.18,1.4.68.77.74,1.2-.4.92-.37,1.36S64.36,64,64.36,64.42Z" style="fill:url(#linear-gradient-19)"/><path d="M47.95,86.26h0c10.51,0,20.13,8.52,21.47,19l-2.84,49.4c-.12,2.55,2.61,4.94,1,5.37-.7.19-1.39.39-2.07.63a37.87,37.87,0,0,1-25.49-.14c-2.37-.9-.39-2.6-.67-5.12l-3.18-47C35.18,100.35,39.41,95,47.95,86.26Z" style="fill:url(#linear-gradient-20)"/><path d="M51.66,79.65l1.84,7.87,0,.08a8.83,8.83,0,0,1-10.25,4.88h0l-.95-8.09Z" style="fill:#f8b7b0"/><path d="M36.11,83.18l.1-15.8a3,3,0,0,1,3-3h4.5a4.23,4.23,0,0,1,4.21,3.86l.07.8,1.15,1.32L50,75.62l1,0,.06-1.27A1.83,1.83,0,0,1,53,72.62h0a1.82,1.82,0,0,1,1.78,1.82v1.4a1.9,1.9,0,0,1-1.9,1.84,1.19,1.19,0,0,0-1.13,1.19v1.76c0,2.68-14.78,8.44-15.58,3.64A5.1,5.1,0,0,1,36.11,83.18Z" style="fill:#f8b7b0"/><path d="M29.33,132.69l-.46,3.83s4.18.55,9.8,1.23a38.83,38.83,0,0,1-.07-5.68Z" style="fill:#f8b7b0"/><path d="M23,137.31a3.23,3.23,0,0,1-2.69-.81,2.21,2.21,0,0,1-.34-1.83,6.47,6.47,0,0,1,.76-1.76c.57-1,9.37-1.48,10.54.86.36.71-.35,1.1-.78,1.77C29.09,137.65,25.5,137.25,23,137.31Z" style="fill:#f8b7b0"/><path d="M23,136.67c-.9,1.12-8.72-1.13-8.11-1.67.32-.67,3.51.28,4,.32C20.33,135.44,22.16,134.63,23,136.67Z" style="fill:#f8b7b0"/><path d="M23,136.52c-1.29.63-4.61-1.88-5.1-3.16A2.24,2.24,0,0,1,19.17,131c.5.58-.27,1.08-.23,1.66s.52.65,1,.91C21.17,134.29,23.18,134.35,23,136.52Z" style="fill:#f8b7b0"/><path d="M25.27,135.16c-1.1.93-4.93-.69-5.73-1.8a2.24,2.24,0,0,1,.63-2.6c.62.44,0,1.11.19,1.67s.67.5,1.18.64C22.93,133.45,24.89,133,25.27,135.16Z" style="fill:#f8b7b0"/><path d="M24.95,134.05c-.86.63-3.6-.76-4.12-1.63a1.66,1.66,0,0,1,.6-1.88c.44.35-.05.82.05,1.24s.46.4.84.53C23.31,132.67,24.78,132.45,24.95,134.05Z" style="fill:#f8b7b0"/><path d="M24.77,136.61c.21-1.37-4.13-1.52-5.11-1.77-.12-1.3,2.56-.74,3.3-.84s1.46-1,2.35-1a2.57,2.57,0,0,1,2,.91c.25.24.53.59.88.65" style="fill:#f8b7b0"/><path d="M69.82,137.13a1.48,1.48,0,0,0,.19-.85c-.32-4.12.6-8.23.88-12.35a74.63,74.63,0,0,0-1.76-19.69c-.76-3.69-2.14-10.79-6.48-12a7.56,7.56,0,0,0-9.42,4.71,11.79,11.79,0,0,0-.11,7c1,3.88,1.1,7.88,2,11.75h.13c0,.75,0,1.48,0,2.12a6.16,6.16,0,0,1-.63,1.84c-.39,1.27.25,1,.76,2s-.4,1.47-.57,2.25c-.25,1.15.74,1.21,1.09,2.08.51,1.29-.41,1.48-1.51,1.4-.38,0-1.19-.26-1.56-.09-.67.3-.24.36-.53.84s.2.72-.43,1c-.37.14-.88-.36-1.23-.36a1.27,1.27,0,0,0-1.4,1c-.72,0-1.18-.79-1.8-.77-1,0-.6,1.1-1.08,1.37-.79.44-3.82-2-3.63.49-1.36.17-3.3.38-4.41.43-1.25.94-.63,5.68.05,7,.26.52,3.86,1,5,1.09-.13,3.52,3.67.15,5.18.92.42.22.5,1,1.05,1.14s.47-.27.91-.43.49-.53,1.22-.35c.56.14.6.8,1,.93.81.28,1.64-.75,2.62-.71,2.23.09,4.75-.69,6.91-1.14C63.83,139.44,68.78,139,69.82,137.13Z" style="fill:url(#linear-gradient-21)"/><path d="M59.22,232.54a2.08,2.08,0,0,1-.26-.34,2.45,2.45,0,0,0-.67-1.76,2.6,2.6,0,0,0-.27-.24,1.66,1.66,0,0,1-.37,0,.93.93,0,0,1-.32-.07,6.05,6.05,0,0,0-2.48-2.62l-.53-.41-3-3.36c-2.8-3.12-7.38-4.47-10.85-6.79l4.46-14.44L48,195.87l-2-11.29a15.64,15.64,0,0,0-2.91-6.52,10.68,10.68,0,0,1-2-5.1c-.6-4.77-1-12.4-1-12.4L27.41,215.23v7.37l7.69,3.78a115.82,115.82,0,0,1,11.07,7.48l.5.39.35.27.48.65c.58,1.72,1.1,2.14,2.76,2.44l.32.27a1.92,1.92,0,0,0,.42.81,1.78,1.78,0,0,0,.79.25c.31,0,.66.07,1.06.09l.31.24,1.1.85,5.7-6.77Z" style="fill:url(#linear-gradient-22)"/><path d="M146.08,98.55l18.31,48.85,3.51,40.39,0,.22.16.28c.39,2.09-1.09,3.08.72,4.45a2,2,0,0,1,0,.28,5.85,5.85,0,0,1-.32,1.23l.13.27a3.26,3.26,0,0,1,.18,3.19,1.77,1.77,0,0,0,0,.2l.07.78-4.45.43-.06-.15c-.3-.67-2.28-.18-1.79-1.66a2.19,2.19,0,0,0,.56-1.54l-.08-.2a2.06,2.06,0,0,1-1.35-1.89,4.81,4.81,0,0,1,0-.64c-.62-.66.36-1.65-.54-2.38l-.09-.24-5.39-14.06a44.26,44.26,0,0,1-1.87-14.53l.26-6.84-30-45.38Z" style="fill:url(#linear-gradient-23)"/><path d="M176.28,204.4c-3.53-2.43-6.53-4.17-6.88-5l-.12-.27c-1.64.2-3.28.35-4.92.54-.43,1.68-1.31,4.9-.62,5.67s3.53.9,5.4.6c2.05-.33,2.45.81,4.5,1,1.34.16,7.87.15,7.26-1C180.53,205.18,176.33,204.43,176.28,204.4Z" style="fill:#424242"/><path d="M150.33,122H119.66a.91.91,0,1,0,0,1.82H133v29H135v-29h15.34a.91.91,0,1,0,0-1.82Z" style="fill:#ffa726"/><rect x="132.02" y="153.53" width="4" height="3.01" style="fill:#ffa726"/><path d="M145.81,185.5H136V157.31h-4V185.5h-9.78a.75.75,0,0,0-.75.75h0a.75.75,0,0,0,.75.75H132v15.25h4V187h9.78a.75.75,0,0,0,.75-.75h0A.75.75,0,0,0,145.81,185.5Z" style="fill:#ffa726"/><polygon points="132.02 203.16 119.24 205.75 148.81 205.75 136.03 203.16 132.02 203.16" style="fill:#ffa726"/><rect x="115.49" y="110.84" width="38.66" height="11.12" rx="4.88" ry="4.88" style="fill:#5d4037"/><polygon points="146.16 73.1 172.58 78.72 172.5 82.09 144.27 83.96 146.16 73.1" style="fill:#f8b7b0"/><path d="M176.18,75.17a2.81,2.81,0,0,1,2.26-.92,1.93,1.93,0,0,1,1.23,1.06,5.64,5.64,0,0,1,.45,1.61c.17,1-5.54,6.12-7.62,5.18-.63-.29-.37-.94-.44-1.63C171.84,78.28,174.5,76.59,176.18,75.17Z" style="fill:#f8b7b0"/><path d="M177.59,74.33c1-.81,4.3.57,5,1.54a2,2,0,0,1-.53,2.27c-.55-.38,0-1-.17-1.45s-.58-.43-1-.55C179.64,75.8,177.94,76.2,177.59,74.33Z" style="fill:#f8b7b0"/><path d="M176.86,75.79c1-.81,4.3.57,5,1.54a2,2,0,0,1-.53,2.27c-.55-.38,0-1-.17-1.45s-.58-.43-1-.55C178.91,77.26,177.21,77.66,176.86,75.79Z" style="fill:#f8b7b0"/><path d="M176.33,76.94c1-.81,4.3.57,5,1.54a2,2,0,0,1-.53,2.27c-.55-.38,0-1-.17-1.45s-.58-.43-1-.55C178.38,78.41,176.68,78.81,176.33,76.94Z" style="fill:#f8b7b0"/><path d="M176.6,78.08c.7-.6,3.18.42,3.69,1.13a1.44,1.44,0,0,1-.39,1.68c-.4-.28,0-.71-.13-1.07s-.43-.32-.76-.41C178.11,79.17,176.86,79.46,176.6,78.08Z" style="fill:#f8b7b0"/><path d="M185.34,87.41h0l14-13.84h0a.39.39,0,0,1,0,.6L186,87.38A.51.51,0,0,1,185.34,87.41Z" style="fill:url(#linear-gradient-24)"/><polygon points="185.34 87.41 175.87 79.7 189.91 65.86 199.38 73.58 185.34 87.41" style="fill:url(#linear-gradient-25)"/><polygon points="186.45 85.53 177.86 78.53 189.86 66.7 198.44 73.7 186.45 85.53" style="fill:#e0f7fa"/><path d="M175.88,76.37c.5,1.23,4.15-.76,5.08-1,.74,1-1.75,1.87-2.32,2.31s-.72,1.52-1.43,2a2.46,2.46,0,0,1-2.09.22,2,2,0,0,0-1-.11" style="fill:#f8b7b0"/><path d="M146.08,98.55c-2.58-2.64-2.58-4-2-7.8l-25.53-.82c-1.81,7.41-3.22,14.13,1.48,19.67,5.23,6.17,36.24,22.68,35.67,25.36-.63,3-8.25,14.74-15.48,24.33l-.15.19c-.28,1.75-2.26,1.75-3.34,3a1.21,1.21,0,0,0-.14.28c-.24.67-.1,1.63-.57,1.89l-.13.16-1,1.26c1.47,1.95,2.06,2.73,3.56,4.65l.47-.37.22-.17c2.17.44,2.17-.55,2.51-2l.24-.2.21-.17c2.18.33,1.68-.66,2.68-2.15l.27-.22c9.38-7.53,26-21,31.86-26.36a3,3,0,0,0,.28-4.14C168.22,124.17,148.91,101.44,146.08,98.55Z" style="fill:url(#linear-gradient-26)"/><path d="M135.93,30.45h0c-10.65,0-20.39,8.64-21.76,19.29l3,39.24c.13,2.85-.61,5.87,1.53,7.76,6.81,6,25.33-1.22,25.33-1.22,2.57,0,.49-3.38.77-5.94l3-36.7C148.87,44.72,144.08,30.45,135.93,30.45Z" style="fill:url(#linear-gradient-27)"/><polygon points="132.84 23.75 130.97 31.72 139.88 38.45 141.76 37.26 142.35 28.55 132.84 23.75" style="fill:#f8b7b0"/><path d="M153.79,4.2a5.18,5.18,0,0,0-5-4.18,7.7,7.7,0,0,0-3,.37c-.27.09-2.5,1.12-2.28,1.35-2.7-2.81-8.56-1.75-9,2.76,0,0-1.07,0-1.15,0a6,6,0,0,0-4.82,3.05,4.51,4.51,0,0,0,.18,5c.21.31.75,1,1,1.09-.12.21.05.7.1,1,.11.58,2.49,7.9,2.51,9.18a9.14,9.14,0,0,1,1.39.16,8.25,8.25,0,0,1,1.31-3.61l.41-.65a1.18,1.18,0,0,1,0-.36c.3-1.25,0-2.81,1-3.84.31-.34.9-.43,1.14-.79s0-4.12.54-5,8.61-1,9.29-.38.64,6.57.69,6.51a1.92,1.92,0,0,0,.16-.78c.24-1.43.9-2.74,1.05-4.18.11-1,1.07-1.06,1.83-1.4A5,5,0,0,0,153.79,4.2Z" style="fill:url(#linear-gradient-28)"/><path d="M148.59,27.32l-.13-19H137L136.56,13l-1.16,1.33-.89,5.3-1,0-.05-1.19a1.93,1.93,0,0,0-1.9-1.88h0a1.91,1.91,0,0,0-1.8,1.93v1.33a1.91,1.91,0,0,0,1.91,1.87A1.21,1.21,0,0,1,132.77,23v1.78c0,2.72,15,8.55,15.78,3.69A5.17,5.17,0,0,0,148.59,27.32Z" style="fill:#f8b7b0"/><path d="M145.06,62a2.4,2.4,0,0,1-1.86.34c-.48-.15-.87-.53-1.36-.68s-2.6-5.91-2.82-6.32-.58-.54-.79-.88a2.71,2.71,0,0,1-.25-1.18,9.89,9.89,0,0,0-1.36-3.42,37.06,37.06,0,0,1-2.69-7.18l-.06-.22A8.27,8.27,0,0,0,120,39.1a7.93,7.93,0,0,0-1.71,2.85c-1.52,4.42.63,9.16,2.46,13.45a2.83,2.83,0,0,1,.33,1.44c-.09.72-.72,1.34-.62,2.05.17,1.15,2,1.31,2.41,2.38a15.31,15.31,0,0,1,.24,1.62,3.12,3.12,0,0,0,.71,1.08,28.77,28.77,0,0,1,4.57,7.15,67.13,67.13,0,0,0,5.36,7.72,4.44,4.44,0,0,0,4.35,1.77c2.33-.62,3.91-3.82,6.23-3.16a3.19,3.19,0,0,0,.67.18c1,.06,1.33-1.32,1.31-2.33h0a1.53,1.53,0,0,0,1.68-1,2.23,2.23,0,0,1,.37-.66c.44-.54,1.05-.92,1.5-1.46a3.2,3.2,0,0,0,.29-.42C149.56,69.57,145.88,64.1,145.06,62Z" style="fill:url(#linear-gradient-29)"/><polygon points="144.98 62.04 164.84 47.6 167.29 49.9 149.81 72.14 144.98 62.04" style="fill:#f8b7b0"/><path d="M169.18,43.7a3.27,3.27,0,0,0-.4-2.81,2.24,2.24,0,0,0-1.78-.61,6.55,6.55,0,0,0-1.87.49c-1.1.41-2.78,5-.61,6.57.66.47,2.21,2.9,2.95,2.57A51.2,51.2,0,0,0,169.18,43.7Z" style="fill:#f8b7b0"/><path d="M168.54,43.58c1.26-.73.18-8.9-.44-8.37-.72.22-.25,3.56-.29,4.1C167.71,40.77,166.62,42.49,168.54,43.58Z" style="fill:#f8b7b0"/><path d="M168.39,43.63c.82-1.2-1.19-4.9-2.39-5.59a2.27,2.27,0,0,0-2.56.89c.5.58,1.12-.1,1.7,0s.57.62.77,1.13C166.43,41.45,166.18,43.46,168.39,43.63Z" style="fill:#f8b7b0"/><path d="M166.68,45.68c1.09-1,.06-5-.94-6a2.27,2.27,0,0,0-2.7.23c.34.69,1.11.18,1.64.44s.4.74.47,1.28C165.33,43.08,164.59,45,166.68,45.68Z" style="fill:#f8b7b0"/><path d="M165.62,45.19c.76-.76-.22-3.72-1-4.37a1.68,1.68,0,0,0-2,.31c.29.49.83.07,1.23.24s.33.53.41.92C164.49,43.34,164,44.77,165.62,45.19Z" style="fill:#f8b7b0"/><path d="M140.18,181c.27-.48-.1-.78-.49-1a.79.79,0,0,0,.11-.13.78.78,0,0,0-.11-1c-1.62-1.63-2.53-6.85-2-7.72l.18-.28c-1.24-1.38-2.43-2.8-3.66-4.19-1.83.69-4.81,1.4-5.08,2.53a8.25,8.25,0,0,0,.78,4.67c1.2,2,2.41,4,3.51,6,.72,1.34,1,3.57,2,4.48s7.26,1.64,8.38.63C145.48,183.59,140.83,181.66,140.18,181Z" style="fill:#424242"/></svg>