<?xml version="1.0" encoding="utf-8"?>
<!-- Generator: Adobe Illustrator 25.2.0, SVG Export Plug-In . SVG Version: 6.00 Build 0)  -->
<svg version="1.1" id="OBJECTS" xmlns="http://www.w3.org/2000/svg" xmlns:xlink="http://www.w3.org/1999/xlink" x="0px" y="0px"
	 viewBox="0 0 420 368" style="enable-background:new 0 0 420 368;" xml:space="preserve">
<style type="text/css">
	.st0{fill:#FFFFFF;stroke:#FFFFFF;stroke-width:12.6;stroke-miterlimit:10;}
	.st1{fill:#31DDB4;}
	.st2{fill:#FFFFFF;}
	.st3{fill:#FFFFFF;stroke:#FFFFFF;stroke-width:8.9997;stroke-linecap:round;stroke-linejoin:round;stroke-miterlimit:9.9996;}
	.st4{fill:#FFFFFF;stroke:#FFFFFF;stroke-width:9;stroke-linecap:round;stroke-linejoin:round;stroke-miterlimit:10;}
	.st5{fill:#FFFFFF;stroke:#FFFFFF;stroke-width:9.0003;stroke-linecap:round;stroke-linejoin:round;stroke-miterlimit:10.0003;}
	.st6{fill:#FFDE00;}
	.st7{fill:#26BA99;}
	.st8{fill:#FFF7CA;}
	.st9{fill:#004271;}
	.st10{fill:#0C8E6F;}
	.st11{fill:#42E8C0;}
</style>
<g>
	<g>
		<g>
			<g>
				<g>
					<g>
						<g>
							<path class="st0" d="M261.6,296.8c0.6,8.6-5.9,16-14.4,16.6l-133.5,9.3c-8.6,0.6-16-5.9-16.6-14.4l-5.6-79.8
								c-0.6-8.6,5.9-16,14.4-16.6l133.5-9.3c8.6-0.6,16,5.9,16.6,14.4L261.6,296.8z"/>
							<path class="st0" d="M176.9,307.5l-11,31.8c0.1,1.3-0.9,2.4-2.2,2.5l0,0c-1.3,0.1-2.4-0.9-2.5-2.2l-15.3-30"/>
						</g>
					</g>
				</g>
				<g>
					<path class="st1" d="M258.1,297c-0.5,8.6-7.8,16.1-16.3,16.7L108.3,323c-8.6,0.6-15.1-5.9-14.7-14.5l4.2-80.5
						c0.5-8.6,7.8-16.1,16.3-16.7l133.5-9.3c8.6-0.6,15.1,5.9,14.7,14.5L258.1,297z"/>
					<path class="st1" d="M172.8,307.7l-14.7,32.1c-0.1,1.3-1.2,2.4-2.4,2.5l0,0c-1.3,0.1-2.3-0.9-2.2-2.2L142,309.9"/>
				</g>
				<g>
					<g>
						<path class="st2" d="M217.5,186.6c6.8-0.5,13.7-0.8,20.8-0.4c3.5,0.2,7.1,0.7,10.6,1.6c3.5,0.9,7.1,2.3,10.1,4.6
							c1.5,1.1,2.9,2.4,4.1,3.9s2.2,3,2.9,4.7c1.6,3.3,2.4,6.7,2.8,10.2c0.8,6.9,0.3,13.7-0.6,20.3c0-6.7-0.3-13.5-1.9-19.9
							c-0.8-3.2-2-6.2-3.6-8.8s-3.9-4.7-6.4-6.2c-5.2-2.9-11.7-3.2-18-2.8c-6.4,0.4-12.9,1.6-19.4,2.8l0,0c-2.7,0.5-5.3-1.2-5.9-4
							s1.2-5.3,4-5.9C217.1,186.6,217.3,186.6,217.5,186.6z"/>
					</g>
					<g>
						<path class="st2" d="M89.8,317.2c1.3,3.9,3.4,7.4,6.2,10.1c2.8,2.7,6.3,4.2,9.9,5s7.4,0.8,11.2,0.4c3.8-0.4,7.5-1.3,11.3-2.3
							h0.1c2.7-0.7,5.4,0.9,6.1,3.6s-0.9,5.4-3.6,6.1c-0.3,0.1-0.7,0.1-1,0.2c-4.3,0.2-8.6,0.4-13-0.1c-4.3-0.5-8.7-1.4-12.8-3.2
							c-4-1.8-7.8-4.5-10.2-8.1C91.6,325.3,90.3,321.2,89.8,317.2z"/>
					</g>
				</g>
			</g>
		</g>
		<g>
			<g>
				<g>
					<path class="st2" d="M251.8,232.7c0,0.6-0.5,1.1-1.1,1.1l0,0c-0.6,0-1.1-0.5-1.1-1.1v-13.3c0-0.6,0.5-1.1,1.1-1.1l0,0
						c0.6,0,1.1,0.5,1.1,1.1V232.7z"/>
					<path class="st2" d="M257.3,225c0.6,0,1.1,0.5,1.1,1.1l0,0c0,0.6-0.5,1.1-1.1,1.1H244c-0.6,0-1.1-0.5-1.1-1.1l0,0
						c0-0.6,0.5-1.1,1.1-1.1H257.3z"/>
					<path class="st2" d="M256.2,230c0.4,0.4,0.4,1.1,0,1.5l0,0c-0.4,0.4-1.1,0.4-1.5,0l-9.4-9.4c-0.4-0.4-0.4-1.1,0-1.5l0,0
						c0.4-0.4,1.1-0.4,1.5,0L256.2,230z"/>
					<path class="st2" d="M254.6,220.6c0.4-0.4,1.1-0.4,1.5,0l0,0c0.4,0.4,0.4,1.1,0,1.5l-9.4,9.4c-0.4,0.4-1.1,0.4-1.5,0l0,0
						c-0.4-0.4-0.4-1.1,0-1.5L254.6,220.6z"/>
				</g>
				<path class="st2" d="M256.8,226.1c0,3.4-2.7,6.1-6.1,6.1c-3.4,0-6.1-2.7-6.1-6.1c0-3.4,2.7-6.1,6.1-6.1
					C254.1,220,256.8,222.7,256.8,226.1z"/>
				<path class="st1" d="M253.6,226.1c0,1.6-1.3,2.8-2.8,2.8c-1.6,0-2.8-1.3-2.8-2.8c0-1.6,1.3-2.8,2.8-2.8S253.6,224.5,253.6,226.1
					z"/>
			</g>
			<g>
				<g>
					<path class="st2" d="M242,219.7c0,0.5-0.4,1-1,1l0,0c-0.5,0-1-0.4-1-1v-11.9c0-0.5,0.4-1,1-1l0,0c0.5,0,1,0.4,1,1V219.7z"/>
					<path class="st2" d="M247,212.7c0.5,0,1,0.4,1,1l0,0c0,0.5-0.4,1-1,1h-12c-0.5,0-1-0.4-1-1l0,0c0-0.5,0.4-1,1-1H247z"/>
					<path class="st2" d="M245.9,217.3c0.4,0.4,0.4,1,0,1.4l0,0c-0.4,0.4-1,0.4-1.4,0l-8.4-8.4c-0.4-0.4-0.4-1,0-1.4l0,0
						c0.4-0.4,1-0.4,1.4,0L245.9,217.3z"/>
					<path class="st2" d="M244.5,208.8c0.4-0.4,1-0.4,1.4,0l0,0c0.4,0.4,0.4,1,0,1.4l-8.4,8.4c-0.4,0.4-1,0.4-1.4,0l0,0
						c-0.4-0.4-0.4-1,0-1.4L244.5,208.8z"/>
				</g>
				<path class="st2" d="M246.1,213.7c0,2.8-2.3,5.1-5.1,5.1s-5.1-2.3-5.1-5.1s2.3-5.1,5.1-5.1C243.8,208.6,246.1,210.9,246.1,213.7
					z"/>
				<path class="st1" d="M243.6,213.7c0,1.4-1.1,2.6-2.6,2.6c-1.4,0-2.6-1.1-2.6-2.6c0-1.4,1.1-2.6,2.6-2.6
					C242.4,211.2,243.6,212.3,243.6,213.7z"/>
			</g>
			<g>
				<g>
					<path class="st2" d="M236.9,231.3c-0.1,0.4-0.4,0.7-0.9,0.7l0,0c-0.4-0.1-0.7-0.4-0.7-0.9l1.2-9.5c0.1-0.4,0.4-0.7,0.9-0.7l0,0
						c0.4,0.1,0.7,0.4,0.7,0.9L236.9,231.3z"/>
					<path class="st2" d="M241.6,226.3c0.4,0.1,0.7,0.4,0.7,0.9l0,0c-0.1,0.4-0.4,0.7-0.9,0.7l-9.5-1.2c-0.4-0.1-0.7-0.4-0.7-0.9
						l0,0c0.1-0.4,0.4-0.7,0.9-0.7L241.6,226.3z"/>
					<path class="st2" d="M240.3,229.8c0.3,0.3,0.2,0.8-0.1,1.1l0,0c-0.3,0.3-0.8,0.2-1.1-0.1l-5.9-7.5c-0.3-0.3-0.2-0.8,0.1-1.1
						l0,0c0.3-0.3,0.8-0.2,1.1,0.1L240.3,229.8z"/>
					<path class="st2" d="M240,223c0.3-0.3,0.8-0.2,1.1,0.1l0,0c0.3,0.3,0.2,0.8-0.1,1.1l-7.5,5.9c-0.3,0.3-0.8,0.2-1.1-0.1l0,0
						c-0.3-0.3-0.2-0.8,0.1-1.1L240,223z"/>
				</g>
				<path class="st2" d="M240.8,227c-0.3,2.2-2.3,3.8-4.6,3.5c-2.2-0.3-3.8-2.3-3.5-4.6s2.3-3.8,4.6-3.5
					C239.5,222.7,241.1,224.8,240.8,227z"/>
				<path class="st1" d="M238.7,226.8c-0.1,1.1-1.2,1.9-2.3,1.8c-1.1-0.1-1.9-1.2-1.8-2.3c0.1-1.1,1.2-1.9,2.3-1.8
					C238.1,224.6,238.9,225.6,238.7,226.8z"/>
			</g>
		</g>
	</g>
	<g>
		<g>
			<g>
				
					<rect x="92.2" y="206.1" transform="matrix(0.7267 -0.6869 0.6869 0.7267 -149.0521 139.8631)" class="st3" width="18.1" height="102.4"/>
			</g>
			<g>
				<polygon class="st4" points="151.4,310.4 142.8,288.2 129.7,300.6 				"/>
			</g>
			<g>
				<path class="st4" d="M57.8,224.6c-3.6-3.8-3.5-9.6,0.1-13s9.4-3.2,13,0.6"/>
				
					<rect x="57.3" y="216.2" transform="matrix(0.7268 -0.6869 0.6869 0.7268 -133.6147 106.4362)" class="st5" width="19.4" height="9.9"/>
			</g>
		</g>
		<g>
			<g>
				
					<rect x="92.2" y="206.1" transform="matrix(0.7267 -0.6869 0.6869 0.7267 -149.0521 139.8631)" class="st6" width="18.1" height="102.4"/>
				
					<rect x="97.7" y="206.1" transform="matrix(0.727 -0.6866 0.6866 0.727 -149.0064 139.7545)" class="st7" width="7.1" height="102.4"/>
			</g>
			<g>
				<polygon class="st8" points="151.4,310.4 142.8,288.2 129.7,300.6 				"/>
				<polygon class="st9" points="151.4,310.4 148.3,302.4 143.6,306.9 				"/>
			</g>
			<g>
				<path class="st7" d="M57.8,224.6c-3.6-3.8-3.5-9.6,0.1-13s9.4-3.2,13,0.6"/>
				
					<rect x="57.3" y="216.2" transform="matrix(0.7268 -0.6869 0.6869 0.7268 -133.6147 106.4362)" class="st10" width="19.4" height="9.9"/>
			</g>
		</g>
	</g>
	<g>
		<g>
			<g>
				<polygon class="st6" points="213.3,67.4 192.6,7 201.3,4.7 				"/>
			</g>
			<g>
				<polygon class="st6" points="266.7,66.1 280.1,3.3 288.8,5.8 				"/>
			</g>
			<g>
				<polygon class="st6" points="170.2,92.7 119.9,50.8 126.2,44.3 				"/>
			</g>
			<g>
				<polygon class="st6" points="142.9,139.2 88.2,127.1 90.9,118.5 				"/>
			</g>
			<g>
				<polygon class="st6" points="309.8,94.8 346.1,48 352.8,54 				"/>
			</g>
		</g>
		<g>
			<g>
				<g>
					<g>
						<g>
							<g>
								<g>
									<g>
										<path class="st2" d="M267.9,283.7c4.7-1.2,23.3-4.8,27.6-6.6c3.1-1.5,2.2-0.3,2.6-3.4c0.6-3.4-0.6-7.5-0.5-11
											c-0.1-4.2,0.2-8.2,0.9-12.4c1.6-11.5,7.3-23.4,12.3-34c3.1-6.5,5.8-12.9,8.2-20.9l-70,17.7"/>
										<g>
											<path class="st2" d="M269.4,289.2c7.4-1.8,15-3.1,22.4-5.1c2.8-0.7,6.1-1.5,8.5-3c3.7-2.3,3.8-7.3,3.6-11.3
												c-0.9-13.2,0.6-24.7,5.6-37.1c4.9-12,11.2-23.3,14.9-35.8c1.3-4.3-2.9-8.1-7-7c-23.3,5.9-46.6,11.8-69.9,17.7
												c-7.1,1.8-4.1,12.8,3,11c23.3-5.9,46.6-11.8,69.9-17.7c-2.3-2.3-4.7-4.7-7-7c-6.9,22.8-21.3,42.3-21.6,67
												c0,2.8,0.3,5.4,0.5,8.2c0.1,1,0.2,2.1,0.1,3.2c-0.1,0.7-0.1,1.4-0.2,2c-0.3,2,0.6,1,2.7-3.2c-0.6-0.1-2.9,1.1-3.6,1.3
												c-1.4,0.4-2.8,0.8-4.2,1.1c-6.9,1.7-13.9,3-20.8,4.7C259.2,280,262.3,291,269.4,289.2L269.4,289.2z"/>
										</g>
									</g>
									<g>
										<path class="st2" d="M256.7,211.2l-71.9,17.7c5.8,6,11.2,10.3,17,14.6c9.4,7.1,20,14.8,26.9,24.3
											c2.6,3.3,4.7,6.8,6.6,10.5c1.8,3,2.6,7.3,4.7,10c1.9,2.5,0.5,1.9,3.9,1.8c4.6-0.4,22.8-5.9,27.5-7.1"/>
										<g>
											<path class="st2" d="M255.2,205.7c-24,5.9-47.9,11.8-71.9,17.7c-4.2,1-5.5,6.6-2.5,9.5c9,9.1,19.6,16.1,29.5,24.2
												c9.8,8.1,17.4,17.3,22.2,29.1c1.4,3.3,3.6,8.4,7.5,9.4c3,0.8,6.8-0.3,9.8-1c7.8-1.8,15.4-4.3,23.1-6.3
												c7.1-1.8,4.1-12.8-3-11s-14,4-21.1,5.8c-1.5,0.4-3,0.8-4.5,1c-1,0.2-0.1-0.3-0.9,0.1c-0.5,0-0.9,0.1-1.4,0.1
												c1.2,0.6,2.4,1.2,3.6,1.8c-0.2,0.2-6.1-12.2-6.6-13.2c-11.8-21.1-33.6-31.5-50.1-48.1c-0.8,3.2-1.7,6.4-2.5,9.5
												c24-5.9,47.9-11.8,71.9-17.7C265.4,214.9,262.4,204,255.2,205.7L255.2,205.7z"/>
										</g>
									</g>
								</g>
								<g>
									<path class="st2" d="M319.5,153.6c10.8,43.4-15.1,87.2-57.8,97.9c-42.8,10.7-86.2-15.9-97-59.3s15.6-84.9,58.4-95.6
										C265.9,86,308.7,110.2,319.5,153.6z"/>
									<g>
										<path class="st2" d="M314.1,155.1c7.2,30.2-4.4,63.1-30.5,80.5c-26,17.4-60.6,16.3-85.5-2.5c-24.7-18.5-36-51.9-26.9-81.5
											c9-29.3,36.9-49.8,67.2-51.6C273.8,97.9,305.2,120.8,314.1,155.1c1.8,7.1,12.8,4.1,11-3c-9-34.8-38.5-60.1-74.4-63.3
											c-35-3.2-70.7,16.1-85.9,48c-15.4,32.5-8,72.1,17.3,97.5c25.4,25.5,64.6,32.3,97.1,17c37-17.4,55.3-60,45.9-99.1
											C323.3,145,312.3,148,314.1,155.1z"/>
									</g>
								</g>
							</g>
							<g>
								<g>
									<g>
										<path class="st2" d="M312.3,301c3.4,13.5-10,28.5-30,33.5c-19.9,5-38.8-2-42.1-15.5"/>
										<g>
											<path class="st2" d="M306.8,302.5c3,13.8-14.4,23.4-25.2,26.2c-11.4,3-31.9,2.9-35.9-11.3c-2-7-13-4.1-11,3
												c5.9,20.7,32.2,24,49.9,19.2c17.6-4.7,37.6-19.8,33.2-40.3C316.3,292.3,305.3,295.4,306.8,302.5L306.8,302.5z"/>
										</g>
									</g>
								</g>
								<g>
									<g>
										<g>
											<path class="st2" d="M310.2,255.4c1,4.1-1,8.2-4.6,9.1L229,283.6c-3.5,0.9-7.3-1.7-8.3-5.9l0,0c-1-4.1,1-8.2,4.6-9.1
												l76.7-19.1C305.5,248.6,309.2,251.2,310.2,255.4L310.2,255.4z"/>
											<g>
												<path class="st2" d="M304.7,256.9c0.5,3.1-5.4,3.3-7.5,3.8c-6.2,1.5-12.4,3.1-18.6,4.6c-14.4,3.6-28.7,7.2-43.1,10.7
													c-1.5,0.4-6.6,2.6-8.1,2c-2.1-0.8-1.4-3.3-0.1-4.1c1-0.6,3-0.7,4.2-1c13.6-3.4,27.2-6.8,40.8-10.2
													c7.5-1.9,14.9-3.7,22.4-5.6C297.4,256.5,303.5,253.3,304.7,256.9c2.3,6.9,13.3,4,11-3c-2.9-8.8-10.1-11.2-18.3-9.1
													c-6.6,1.7-13.2,3.3-19.9,5c-16.4,4.1-32.8,8.2-49.1,12.3c-6.7,1.7-12.9,4.2-13.6,12.3c-0.9,10.3,7.9,16.6,17.3,14.4
													c15.1-3.6,30.2-7.5,45.3-11.3c8.3-2.1,16.7-4.2,25-6.2c1.5-0.4,3.1-0.7,4.7-1.2c7.3-2.2,9.8-9.1,8.6-16.1
													C314.5,246.6,303.5,249.7,304.7,256.9z"/>
											</g>
										</g>
									</g>
									<g>
										<g>
											<path class="st2" d="M313.7,269.4c1,4.1-1,8.2-4.6,9.1l-76.7,19.1c-3.5,0.9-7.3-1.7-8.3-5.9l0,0c-1-4.1,1-8.2,4.6-9.1
												l76.7-19.1C309,262.6,312.7,265.2,313.7,269.4L313.7,269.4z"/>
											<g>
												<path class="st2" d="M308.2,270.9c0.5,3.1-5.4,3.3-7.5,3.8c-6.2,1.5-12.4,3.1-18.6,4.6c-14.4,3.6-28.7,7.2-43.1,10.7
													c-1.5,0.4-6.6,2.6-8.1,2c-2.1-0.8-1.4-3.3-0.1-4.1c1-0.6,3-0.7,4.2-1c13.6-3.4,27.2-6.8,40.8-10.2
													c7.5-1.9,14.9-3.7,22.4-5.6C300.9,270.5,307,267.3,308.2,270.9c2.3,6.9,13.3,4,11-3c-2.9-8.8-10.1-11.2-18.2-9.1
													c-6.6,1.7-13.2,3.3-19.9,5c-16.4,4.1-32.8,8.2-49.2,12.3c-6.7,1.7-12.9,4.2-13.6,12.3c-0.9,10.3,7.9,16.6,17.3,14.4
													c15.1-3.6,30.2-7.5,45.3-11.3c8.3-2.1,16.7-4.2,25-6.2c1.5-0.4,3.1-0.7,4.7-1.2c7.2-2.2,9.8-9.1,8.6-16.1
													C318,260.6,307,263.7,308.2,270.9z"/>
											</g>
										</g>
									</g>
									<g>
										<g>
											<path class="st2" d="M317.2,283.4c1,4.1-1,8.2-4.6,9.1l-76.7,19.1c-3.5,0.9-7.3-1.7-8.3-5.9l0,0c-1-4.1,1-8.2,4.6-9.1
												l76.7-19.1C312.5,276.6,316.2,279.2,317.2,283.4L317.2,283.4z"/>
											<g>
												<path class="st2" d="M311.7,284.9c0.5,3.1-5.4,3.3-7.5,3.8c-6.2,1.5-12.4,3.1-18.6,4.6c-14.4,3.6-28.7,7.2-43.1,10.7
													c-1.5,0.4-6.6,2.6-8.1,2c-2.1-0.8-1.4-3.3-0.1-4.1c1-0.6,3-0.7,4.2-1c13.6-3.4,27.2-6.8,40.8-10.2
													c7.5-1.9,14.9-3.7,22.4-5.6C304.4,284.5,310.5,281.2,311.7,284.9c2.3,6.9,13.3,4,11-3c-2.9-8.7-10-11.2-18.2-9.1
													c-6.6,1.7-13.2,3.3-19.9,5c-16.4,4.1-32.8,8.2-49.2,12.3c-6.7,1.7-12.9,4.2-13.6,12.3c-0.9,10.3,7.9,16.6,17.3,14.4
													c15.1-3.6,30.2-7.5,45.3-11.3c8.3-2.1,16.7-4.2,25-6.2c1.5-0.4,3.1-0.7,4.7-1.2c7.2-2.2,9.8-9.1,8.6-16.1
													C321.5,274.6,310.5,277.7,311.7,284.9z"/>
											</g>
										</g>
									</g>
									<g>
										<g>
											<path class="st2" d="M320.7,297.4c1,4.1-1,8.2-4.6,9.1l-76.7,19.1c-3.5,0.9-7.3-1.7-8.3-5.9l0,0c-1-4.1,1-8.2,4.6-9.1
												l76.7-19.1C315.9,290.6,319.7,293.2,320.7,297.4L320.7,297.4z"/>
											<g>
												<path class="st2" d="M315.2,298.9c0.5,3.1-5.4,3.3-7.5,3.8c-6.2,1.5-12.4,3.1-18.6,4.6c-14.4,3.6-28.7,7.2-43.1,10.7
													c-1.5,0.4-6.6,2.6-8.1,2c-2.1-0.8-1.4-3.3-0.1-4.1c1-0.6,3-0.7,4.2-1c13.6-3.4,27.2-6.8,40.8-10.2
													c7.5-1.9,14.9-3.7,22.4-5.6C307.8,298.5,314,295.2,315.2,298.9c2.3,6.9,13.3,4,11-3c-2.9-8.7-10.1-11.2-18.2-9.1
													c-6.6,1.7-13.2,3.3-19.9,5c-16.4,4.1-32.8,8.2-49.2,12.3c-6.7,1.7-12.9,4.2-13.6,12.3c-0.9,10.3,7.9,16.6,17.3,14.4
													c15.1-3.6,30.2-7.5,45.3-11.3c8.3-2.1,16.7-4.2,25-6.2c1.5-0.4,3.1-0.7,4.7-1.2c7.2-2.2,9.8-9.1,8.6-16.1
													C325,288.6,314,291.7,315.2,298.9z"/>
											</g>
										</g>
									</g>
								</g>
							</g>
						</g>
						<g>
							<g>
								<g>
									<g>
										<path class="st6" d="M267.9,283.7c4.7-1.2,23.3-4.8,27.6-6.6c3.1-1.5,2.2-0.3,2.6-3.4c0.6-3.4-0.6-7.5-0.5-11
											c-0.1-4.2,0.2-8.2,0.9-12.4c1.6-11.5,7.3-23.4,12.3-34c3.1-6.5,5.8-12.9,8.2-20.9l-70,17.7"/>
									</g>
									<g>
										<path class="st6" d="M256.7,211.2l-71.9,17.7c5.8,6,11.2,10.3,17,14.6c9.4,7.1,20,14.8,26.9,24.3
											c2.6,3.3,4.7,6.8,6.6,10.5c1.8,3,2.6,7.3,4.7,10c1.9,2.5,0.5,1.9,3.9,1.8c4.6-0.4,22.8-5.9,27.5-7.1"/>
									</g>
								</g>
								<path class="st6" d="M319.5,153.6c10.8,43.4-15.1,87.2-57.8,97.9c-42.8,10.7-86.2-15.9-97-59.3s15.6-84.9,58.4-95.6
									C265.9,86,308.7,110.2,319.5,153.6z"/>
							</g>
							<g>
								<g>
									<g>
										<path class="st2" d="M269,287.7c-0.5,0.1-1.1-0.1-1.4-0.6l-48.4-93.9c-0.3-0.6-0.1-1.3,0.5-1.6s1.3-0.1,1.6,0.5l48.4,93.9
											c0.3,0.6,0.1,1.3-0.5,1.6C269.2,287.7,269.1,287.7,269,287.7z"/>
									</g>
									<g>
										<path class="st2" d="M272.3,286.9c-0.1,0-0.2,0-0.3,0c-0.7,0-1.2-0.5-1.2-1.2L269.5,180c0-0.7,0.5-1.2,1.2-1.2
											s1.2,0.5,1.2,1.2l1.3,105.6C273.2,286.3,272.8,286.8,272.3,286.9z"/>
									</g>
									<g>
										<path class="st2" d="M242.1,207.1c-0.3,0.1-0.6,0-0.9-0.1l-21-13.1c-0.6-0.3-0.7-1.1-0.4-1.7c0.4-0.6,1.1-0.7,1.7-0.4
											l21,13.1c0.6,0.4,0.7,1.1,0.4,1.7C242.7,206.9,242.4,207,242.1,207.1z"/>
									</g>
									<g>
										<path class="st2" d="M242.1,207.1c-0.2,0.1-0.4,0-0.6,0c-0.7-0.2-1-0.8-0.9-1.5l4.1-16.4c0.2-0.7,0.8-1,1.4-0.9
											c0.7,0.2,1,0.8,0.9,1.5l-4.1,16.4C242.9,206.7,242.5,207,242.1,207.1z"/>
									</g>
									<g>
										<path class="st2" d="M258.3,203.1c-0.4,0.1-0.8,0-1.1-0.3L245,190.4c-0.5-0.5-0.5-1.2,0-1.7s1.2-0.5,1.7,0l12.1,12.3
											c0.5,0.5,0.5,1.2,0,1.7C258.7,202.9,258.5,203,258.3,203.1z"/>
									</g>
									<g>
										<path class="st2" d="M258.3,203.1c-0.3,0.1-0.6,0-0.9-0.1c-0.6-0.3-0.8-1.1-0.4-1.6l12.6-21.8c0.3-0.6,1.1-0.8,1.6-0.4
											c0.6,0.3,0.8,1.1,0.4,1.6L259,202.6C258.9,202.8,258.6,203,258.3,203.1z"/>
									</g>
								</g>
								<g>
									<g>
										<path class="st2" d="M221.6,198.5c7.5-1.9,4.6-13.5-2.9-11.7C211.1,188.7,214,200.4,221.6,198.5L221.6,198.5z"/>
									</g>
								</g>
								<g>
									<g>
										<path class="st2" d="M272.2,185.6c7.5-1.9,4.6-13.5-2.9-11.7C261.8,175.8,264.7,187.5,272.2,185.6L272.2,185.6z"/>
									</g>
								</g>
							</g>
							<g>
								<g>
									<g>
										<path class="st10" d="M312.3,301c3.4,13.5-10,28.5-30,33.5c-19.9,5-38.8-2-42.1-15.5"/>
									</g>
								</g>
								<g>
									<g>
										<path class="st7" d="M310.2,255.4c1,4.1-1,8.2-4.6,9.1L229,283.6c-3.5,0.9-7.3-1.7-8.3-5.9l0,0c-1-4.1,1-8.2,4.6-9.1
											l76.7-19.1C305.5,248.6,309.2,251.2,310.2,255.4L310.2,255.4z"/>
									</g>
									<g>
										<path class="st7" d="M313.7,269.4c1,4.1-1,8.2-4.6,9.1l-76.7,19.1c-3.5,0.9-7.3-1.7-8.3-5.9l0,0c-1-4.1,1-8.2,4.6-9.1
											l76.7-19.1C309,262.6,312.7,265.2,313.7,269.4L313.7,269.4z"/>
									</g>
									<g>
										<path class="st7" d="M317.2,283.4c1,4.1-1,8.2-4.6,9.1l-76.7,19.1c-3.5,0.9-7.3-1.7-8.3-5.9l0,0c-1-4.1,1-8.2,4.6-9.1
											l76.7-19.1C312.5,276.6,316.2,279.2,317.2,283.4L317.2,283.4z"/>
									</g>
									<g>
										<path class="st7" d="M320.7,297.4c1,4.1-1,8.2-4.6,9.1l-76.7,19.1c-3.5,0.9-7.3-1.7-8.3-5.9l0,0c-1-4.1,1-8.2,4.6-9.1
											l76.7-19.1C315.9,290.6,319.7,293.2,320.7,297.4L320.7,297.4z"/>
									</g>
								</g>
							</g>
						</g>
					</g>
				</g>
			</g>
			<g>
				<g>
					<path class="st2" d="M223.6,117c28.1-10.5,61.6,1.1,71.9,30.7c0.8,2.3,4.4,1.3,3.6-1c-10.9-31.4-46.4-44.6-76.5-33.3
						C220.4,114.2,221.4,117.8,223.6,117L223.6,117z"/>
				</g>
			</g>
		</g>
	</g>
</g>
<g>
	<polygon class="st1" points="78.5,104.4 75.7,99.2 70.4,96.3 75.7,93.5 78.5,88.2 81.4,93.5 86.6,96.3 81.4,99.2 	"/>
	<polygon class="st1" points="353.5,126.6 351.1,122.1 346.6,119.7 351.1,117.3 353.5,112.8 355.9,117.3 360.4,119.7 355.9,122.1 	
		"/>
	<circle class="st11" cx="50.9" cy="315" r="6.4"/>
	<path class="st11" d="M359.6,222c0,2.8-2.3,5.1-5.1,5.1s-5.1-2.3-5.1-5.1s2.3-5.1,5.1-5.1S359.6,219.1,359.6,222z"/>
	<path class="st11" d="M44.9,263.5c0,3.8-3,6.8-6.8,6.8s-6.8-3-6.8-6.8s3-6.8,6.8-6.8S44.9,259.8,44.9,263.5z"/>
	<g>
		<g>
			<path class="st6" d="M150.7,98.5c3.2,0,3.2-5,0-5S147.5,98.5,150.7,98.5L150.7,98.5z"/>
		</g>
	</g>
	<g>
		<g>
			<path class="st6" d="M354.5,271.9c3.2,0,3.2-5,0-5S351.3,271.9,354.5,271.9L354.5,271.9z"/>
		</g>
	</g>
	<g>
		<g>
			<path class="st6" d="M359.6,176.2c3.2,0,3.2-5,0-5S356.4,176.2,359.6,176.2L359.6,176.2z"/>
		</g>
	</g>
	<g>
		<g>
			<path class="st6" d="M16.1,204.2c3.2,0,3.2-5,0-5S12.9,204.2,16.1,204.2L16.1,204.2z"/>
		</g>
	</g>
	<g>
		<g>
			<path class="st6" d="M373.5,53.5c3.2,0,3.2-5,0-5S370.3,53.5,373.5,53.5L373.5,53.5z"/>
		</g>
	</g>
	<g>
		<g>
			<path class="st7" d="M123.9,182c9.7,0,9.7-15,0-15S114.2,182,123.9,182L123.9,182z"/>
		</g>
	</g>
	<g>
		<g>
			<path class="st7" d="M50.9,170.8c6.4,0,6.4-10,0-10S44.5,170.8,50.9,170.8L50.9,170.8z"/>
		</g>
	</g>
	<g>
		<g>
			<path class="st7" d="M384.2,232.7c4.8,0,4.8-7.5,0-7.5C379.4,225.2,379.4,232.7,384.2,232.7L384.2,232.7z"/>
		</g>
	</g>
</g>
</svg>
