<?xml version="1.0" encoding="utf-8"?>
<!-- Generator: Adobe Illustrator 25.4.1, SVG Export Plug-In . SVG Version: 6.00 Build 0)  -->
<svg version="1.1" id="Layer_1" xmlns="http://www.w3.org/2000/svg" xmlns:xlink="http://www.w3.org/1999/xlink" x="0px" y="0px"
	 viewBox="0 0 602.6 552" style="enable-background:new 0 0 602.6 552;" xml:space="preserve">
<style type="text/css">
	.st0{fill:url(#SVGID_1_);}
	.st1{fill:url(#SVGID_00000165230326313785837870000017164904249521383560_);}
	.st2{fill:url(#SVGID_00000181057452856354757800000007806288967967537312_);}
	.st3{fill:#F4F9FF;stroke:#000000;stroke-width:2;stroke-miterlimit:10;}
	.st4{fill:url(#SVGID_00000181777342075159700820000017939745623378090936_);}
	.st5{fill:#F8B7B0;}
	.st6{fill:url(#SVGID_00000031928376220804854330000002748706414568564133_);}
	.st7{fill:url(#SVGID_00000041984710298154049530000011630988389303439497_);}
	.st8{fill:url(#SVGID_00000074427147669517234200000006772875347911412396_);}
	.st9{fill:url(#SVGID_00000089562880141535646540000009325851247656121019_);}
	.st10{fill:url(#SVGID_00000114782047330659375880000010223586796611483070_);}
	.st11{fill:url(#SVGID_00000041258539410772602370000006641903534116370585_);}
	.st12{fill:url(#SVGID_00000041285668805655028380000005571187249663580585_);}
	.st13{fill:url(#SVGID_00000097501033628869227240000004074706692285947539_);}
	.st14{fill:url(#SVGID_00000062175474493694147810000015196181890923698088_);}
	.st15{fill:url(#SVGID_00000085959584103210046370000004283773349268555688_);}
	.st16{fill:url(#SVGID_00000043437924105814732550000013769598455321433530_);}
	.st17{fill:url(#SVGID_00000094601789372978602990000017723734575087249300_);}
	.st18{fill:#E0F7FA;}
	.st19{fill:url(#SVGID_00000118362186795669155060000015806073297357262494_);}
	.st20{fill:url(#SVGID_00000119114879648206822080000014623941580402451899_);}
	.st21{fill:url(#SVGID_00000073703843836907299010000015024796243388233632_);}
	.st22{fill:url(#SVGID_00000133505011693687944460000014272962155903279262_);}
	.st23{fill:url(#SVGID_00000023266070050818194650000013742564641123927481_);}
	.st24{fill:url(#SVGID_00000114063823380599567780000011056448388999683224_);}
	.st25{fill:url(#SVGID_00000149365181850426936170000002179007383690080405_);}
	.st26{fill:url(#SVGID_00000043449589019308339960000005316470528007644860_);}
	.st27{fill:url(#SVGID_00000182494145675856614950000017251538041095351979_);}
	.st28{fill:url(#SVGID_00000178175723357640506230000016525224859482892203_);}
	.st29{fill:#292F33;}
	.st30{fill:#FFFFFF;}
</style>
<g>
	<g>
		<g>
			<g>
				
					<linearGradient id="SVGID_1_" gradientUnits="userSpaceOnUse" x1="9.0315" y1="-1697.1115" x2="255.1314" y2="-1451.0114" gradientTransform="matrix(1 0 0 -1 0 -1211.48)">
					<stop  offset="0" style="stop-color:#F54EA2"/>
					<stop  offset="1" style="stop-color:#FF7676"/>
				</linearGradient>
				<path class="st0" d="M203.9,231.1C80.1,252.8-2.7,370.9,19.1,494.7c0.1,0.4,0.2,0.7,0.3,1.3l118-20.7c-0.1-0.6-0.2-0.9-0.2-1.3
					c-10.3-58.7,28.8-114.6,87.5-124.9c6.3-1.1,12.6-1.6,18.5-1.6V227.6C230.6,227.7,217.1,228.8,203.9,231.1z"/>
				
					<linearGradient id="SVGID_00000127756804417937708820000016237879223851822499_" gradientUnits="userSpaceOnUse" x1="368.6933" y1="-1547.8014" x2="211.254" y2="-1390.3621" gradientTransform="matrix(1 0 0 -1 0 -1211.48)">
					<stop  offset="0" style="stop-color:#FCE38A"/>
					<stop  offset="1" style="stop-color:#F38181"/>
				</linearGradient>
				<path style="fill:url(#SVGID_00000127756804417937708820000016237879223851822499_);" d="M253.6,208.5v119.8c0.8,0,1.6,0,2.4,0
					c29.2,0.6,56.3,13.1,75.8,33.5l87.5-81.8C377.2,235.3,317.6,208.4,253.6,208.5z"/>
				
					<linearGradient id="SVGID_00000176741233676362330090000016621169855728781966_" gradientUnits="userSpaceOnUse" x1="483.0251" y1="-1696.755" x2="236.5359" y2="-1450.266" gradientTransform="matrix(1 0 0 -1 0 -1211.48)">
					<stop  offset="0" style="stop-color:#42E695"/>
					<stop  offset="1" style="stop-color:#3BB2B8"/>
				</linearGradient>
				<path style="fill:url(#SVGID_00000176741233676362330090000016621169855728781966_);" d="M472.7,415.3
					c-8-45.6-29-85.6-58.6-116.9l-87.5,81.8c14.2,14.9,24.4,34,28.2,55.8c0.9,5.1,1.4,10.2,1.6,15.3c0.3,8-0.3,15.9-1.8,23.5
					l59,10.5l59,10.4l0,0c2.9-15.9,4.1-32.2,3.5-48.8C475.7,436.5,474.6,426,472.7,415.3z"/>
			</g>
		</g>
	</g>
	<path class="st3" d="M394.7,407.6c0,0-73.4,43.5-123,62.2c-27,10.2-32.2-3.7-32.2-3.7s-5.2-13.8,21.8-24
		C310.9,423.4,394.7,407.6,394.7,407.6z"/>
	
		<ellipse transform="matrix(0.1602 -0.9871 0.9871 0.1602 -253.2845 632.8997)" class="st3" cx="245.3" cy="465.3" rx="23.5" ry="23.5"/>
</g>
<g>
	
		<linearGradient id="SVGID_00000090264751140712493770000004517877767307508904_" gradientUnits="userSpaceOnUse" x1="-747.4396" y1="2245.4321" x2="-747.4396" y2="2334.7158" gradientTransform="matrix(-1 0 0 1 -282.3078 -2181.5046)">
		<stop  offset="0" style="stop-color:#C51162"/>
		<stop  offset="1" style="stop-color:#072759"/>
	</linearGradient>
	<path style="fill:url(#SVGID_00000090264751140712493770000004517877767307508904_);" d="M527.3,51.8c1.5,4.3-0.8,8.3-0.5,12.6
		c0.2,4.1,1.9,8,4.6,11c4.2,4.5,10.5,5.2,13.8,10.9c1.6,3.1,2.5,6.4,2.7,9.9c0.3,6-0.9,12-3.7,17.3c-2.5,5.1-6.3,9.4-8.3,14.8
		c-3.1,8.2,3.4,16.5,3.7,24.7c1.2,33.7-33.7,53.4-61,64c-18.3,7.4-38.6,7.9-57.2,1.2c-23.3-8.7-48.3-30.5-35.7-57.6
		c4.9-10.6,15.9-17.5,27.2-19.9c1.2-0.2,2.4-0.5,3.6-0.9c5.8-2.8-0.4-9.7-2.1-13.2c-3.9-7.9-1.4-16.2,5-22.2s18.2-3.8,22.3-12.2
		c6.1-12.4-8.6-26.9,0.7-37.8c4.1-4.7,8.8-3,13.4-5.9c2.8-1.8,4.5-6.4,6.6-9c7.8-9.3,22.6-10.3,33.2-6c6.8,2.8,10.1,11.7,18.2,11.6
		C518.8,45.1,525.2,46.3,527.3,51.8z"/>
	<polygon class="st5" points="470.6,158.9 447.4,191.8 437.3,182.9 455.8,149.5 	"/>
	
		<linearGradient id="SVGID_00000149354311452571163500000016203304294100231064_" gradientUnits="userSpaceOnUse" x1="-1300.585" y1="2127.3306" x2="-1292.9652" y2="2159.9175" gradientTransform="matrix(-1.05 -0.21 -0.27 1.08 -308.116 -2449.3662)">
		<stop  offset="0" style="stop-color:#F54EA2"/>
		<stop  offset="1" style="stop-color:#FF7676"/>
	</linearGradient>
	<path style="fill:url(#SVGID_00000149354311452571163500000016203304294100231064_);" d="M476.2,159.7c1.4-0.4,0.9-1.5,1.8-2.3
		c0.5-0.5,1.6-0.5,2.3-1c-0.4-1.4,0.1-2.9,1.2-3.9c1.8-2.1,3.5-4.2,4.9-6.6c3-4.8,6.5-10.5,4.1-15.4c-2-4-5.2-5-9.4-5.6
		c-4.7-0.7-9.4,0.8-12.8,4c-2.4,1.9-4.5,4.1-6.2,6.6c-1.2,1.9-1.9,4.4-3.9,5.6c0.5,2.4-2.1,2-2.8,3.6c-1,2.1,1.3,3.3-2,4.3
		c0.1,2,15.9,15,17,15.9C472,165.3,476.1,160.9,476.2,159.7z"/>
	
		<linearGradient id="SVGID_00000101782464687632456710000006391620378907029127_" gradientUnits="userSpaceOnUse" x1="-808.8383" y1="2630.9285" x2="-790.889" y2="2521.6343" gradientTransform="matrix(-1 0 0 1 -282.3078 -2181.5046)">
		<stop  offset="0" style="stop-color:#263238"/>
		<stop  offset="1" style="stop-color:#000001"/>
	</linearGradient>
	<path style="fill:url(#SVGID_00000101782464687632456710000006391620378907029127_);" d="M469.8,308.3c4.1,20.8,20,75.4,34.7,90.7
		c7.7,18.1,20.2,36.2,31.6,54.3c6.9,10.6,13,21.7,18.3,33.2c4-0.2,7.9-1.6,11.2-4c-3.7-8.6-9.4-22.8-13.9-35.9
		c-2.6-7.3-4.7-14.7-6.3-22.3c-2.3-13.2-12.5-31.4-27.7-39.5c6.5-37.9,14.8-56.4,10.4-85.8c-0.8-5.6,2.6-25.9-4.9-35.2
		c-11.7-14.3-35-4.3-62.4-14.1C463.9,269.6,466.8,292.1,469.8,308.3z"/>
	
		<linearGradient id="SVGID_00000113311757388603656440000005185984140270102406_" gradientUnits="userSpaceOnUse" x1="41.3086" y1="2321.0051" x2="41.3086" y2="2321.2368" gradientTransform="matrix(-0.9215 0.3883 0.3883 0.9215 -308.4045 -1666.8035)">
		<stop  offset="0" style="stop-color:#FFCDD2"/>
		<stop  offset="1" style="stop-color:#E57373"/>
	</linearGradient>
	<path style="fill:url(#SVGID_00000113311757388603656440000005185984140270102406_);" d="M554.8,488.2V488
		C554.8,488.1,554.8,488.2,554.8,488.2z"/>
	
		<linearGradient id="SVGID_00000077304843741772896850000010361192988367219332_" gradientUnits="userSpaceOnUse" x1="27.92" y1="2347.7092" x2="27.8043" y2="2337.3567" gradientTransform="matrix(-0.9215 0.3883 0.3883 0.9215 -308.4045 -1666.8035)">
		<stop  offset="0" style="stop-color:#FFCDD2"/>
		<stop  offset="1" style="stop-color:#E57373"/>
	</linearGradient>
	<polygon style="fill:url(#SVGID_00000077304843741772896850000010361192988367219332_);" points="571.8,500 581.4,519.6 
		582.7,519.1 574.1,492.7 	"/>
	<path class="st5" d="M558.2,523.9c-0.1,0.9-0.2,1.8-0.3,2.7c4.9,0.6,8.9,1.9,10.5-3.8c4.1-12.9-2.2-24.6,0.3-36.9
		c-1.2-0.5-2.2-1.3-2.8-2.5c0,0,0.4,1.5-5.3,3.9c-4.5,1.8-5.4,1.2-5.6,0.9c2,6.1,1,11.5,1.1,18.9
		C556.2,513.5,559.5,517.5,558.2,523.9z"/>
	
		<linearGradient id="SVGID_00000019638884531850189900000001012967656182769296_" gradientUnits="userSpaceOnUse" x1="42.3094" y1="2313.5012" x2="42.3094" y2="2366.0754" gradientTransform="matrix(-0.9215 0.3883 0.3883 0.9215 -308.4045 -1666.8035)">
		<stop  offset="0" style="stop-color:#FFCDD2"/>
		<stop  offset="1" style="stop-color:#E57373"/>
	</linearGradient>
	<path style="fill:url(#SVGID_00000019638884531850189900000001012967656182769296_);" d="M557.9,526.6c-0.1,0.7-0.6,1.1-3,3.1
		c-4.1,3.3-1.6,6,2.7,4.3c4.9-1.9,6.7-1.7,10-4.9s4.6-4.8,4.2-9.5c-0.5-6.6-3.3-13,0-19.5c1.8-3.7,4.2-6.6,2.3-10.8
		c-1.3-3-3.5-2.6-5.5-3.4c-2.5,12.3,3.9,24-0.3,36.9C566.8,528.5,562.8,527.1,557.9,526.6z"/>
	
		<linearGradient id="SVGID_00000067227491985800042000000013545409590067768983_" gradientUnits="userSpaceOnUse" x1="-780.3546" y1="2487.4124" x2="-780.3546" y2="2330.9175" gradientTransform="matrix(-1 0 0 1 -282.3078 -2181.5046)">
		<stop  offset="0" style="stop-color:#263238"/>
		<stop  offset="1" style="stop-color:#000001"/>
	</linearGradient>
	<path style="fill:url(#SVGID_00000067227491985800042000000013545409590067768983_);" d="M460.2,239.3c0,3.2,0.6,15.7,3.8,22.6
		c6.9,14.8,12.6,4.3,14.2,20.6c1.5,15,2.6,104.4,10.2,124.2c0.1,19.7,4.5,41.2,8,62.3c2.3,12.5,3.6,25.1,4,37.8
		c3.8,1.4,7.9,1.6,11.8,0.7c0-9.4,0.3-24.5,1.2-38.5c0.4-7.7,1.3-15.4,2.8-23c3-13.1,0.7-33.8-10.1-47.1
		c4-29.5,16.2-63.9,25.2-100.5c14.2-40.9-9-61.2-9.6-63.6c-12.3,5.3-25.1,9.7-38.1,9.5C475.6,244.5,467.5,242.8,460.2,239.3z"/>
	
		<linearGradient id="SVGID_00000085245611743245438200000014193826024763881647_" gradientUnits="userSpaceOnUse" x1="-782.7078" y1="2689.8345" x2="-782.7078" y2="2690.0662" gradientTransform="matrix(-1 0 0 1 -282.3078 -2181.5046)">
		<stop  offset="0" style="stop-color:#FFCDD2"/>
		<stop  offset="1" style="stop-color:#E57373"/>
	</linearGradient>
	<path style="fill:url(#SVGID_00000085245611743245438200000014193826024763881647_);" d="M500.4,508.6c0-0.1,0-0.2,0-0.2
		C500.4,508.5,500.4,508.5,500.4,508.6z"/>
	
		<linearGradient id="SVGID_00000050622229609262239840000015879437729744752770_" gradientUnits="userSpaceOnUse" x1="-795.9243" y1="2716.5386" x2="-796.0401" y2="2706.1858" gradientTransform="matrix(-1 0 0 1 -282.3078 -2181.5046)">
		<stop  offset="0" style="stop-color:#FFCDD2"/>
		<stop  offset="1" style="stop-color:#E57373"/>
	</linearGradient>
	<polygon style="fill:url(#SVGID_00000050622229609262239840000015879437729744752770_);" points="511.3,526 512.5,547.8 
		513.9,547.8 516.2,520.2 	"/>
	<path class="st5" d="M489.5,542.7c-0.5,0.8-0.9,1.5-1.3,2.3c4.3,2.4,7.4,5.2,11.1,0.6c8.8-10.3,7.5-23.5,14.6-33.9
		c-0.9-0.9-1.5-2.1-1.6-3.3c0,0-0.3,1.6-6.4,1.5c-4.8-0.1-5.5-1-5.5-1.3c-0.5,6.4-3.6,10.9-6.3,17.9
		C491.7,532.3,493.1,537.3,489.5,542.7z"/>
	
		<linearGradient id="SVGID_00000071520299010753971590000001211470150628108457_" gradientUnits="userSpaceOnUse" x1="-781.518" y1="2682.3538" x2="-781.518" y2="2734.9048" gradientTransform="matrix(-1 0 0 1 -282.3078 -2181.5046)">
		<stop  offset="0" style="stop-color:#FFCDD2"/>
		<stop  offset="1" style="stop-color:#E57373"/>
	</linearGradient>
	<path style="fill:url(#SVGID_00000071520299010753971590000001211470150628108457_);" d="M488.1,545c-0.4,0.6-1,0.8-3.9,1.7
		c-5.1,1.5-3.8,4.9,0.8,5c5.3,0.1,7.2,0.9,11.1-0.6c4.3-1.7,6.1-2.6,7.5-7.1c2.1-6.3,2-13.2,7.6-18c3.1-2.7,6.3-4.5,6.3-9
		c-0.1-3.3-2.2-3.8-3.8-5.3c-7.1,10.4-5.8,23.6-14.6,33.9C495.6,550.2,492.5,547.5,488.1,545z"/>
	
		<linearGradient id="SVGID_00000106115276228021441400000016684736466299155132_" gradientUnits="userSpaceOnUse" x1="-809.0849" y1="2362.8723" x2="-733.2579" y2="2362.8723" gradientTransform="matrix(-1 0 0 1 -282.3078 -2181.5046)">
		<stop  offset="0" style="stop-color:#F54EA2"/>
		<stop  offset="1" style="stop-color:#FF7676"/>
	</linearGradient>
	<path style="fill:url(#SVGID_00000106115276228021441400000016684736466299155132_);" d="M526.1,159.4c2.6-9.1-2.8-21.1-7.5-29.3
		c-5.4-9.3-10.6-13-22-13.9c-3.7-0.3-7.3,1.1-9.9,3.8c-9.8,0-24.3,29.3-33.2,44c-9.6,15.8,11,22,11,22l-4.4,57.2
		c9.4,3.6,21.1,3.6,30.5,3.2c11.3-0.6,25.4-5,31.1-11.6c-5.2-11-16.4-31-16.2-34.9L526.1,159.4z"/>
	
		<linearGradient id="SVGID_00000066514587719222411730000004834627679460717475_" gradientUnits="userSpaceOnUse" x1="-2931.7866" y1="1939.6726" x2="-2922.8931" y2="1938.5841" gradientTransform="matrix(0.89 -0.45 0.45 0.89 2109.5918 -2905.2676)">
		<stop  offset="0" style="stop-color:#000001"/>
		<stop  offset="1" style="stop-color:#697276"/>
	</linearGradient>
	<path style="fill:url(#SVGID_00000066514587719222411730000004834627679460717475_);" d="M387.2,156.8l-31-30.6l-0.1-0.1
		c-0.3-0.4-0.3-0.9,0.1-1.3l0,0l32.4,32.1l0,0C388.2,157.1,387.6,157.1,387.2,156.8z"/>
	
		<linearGradient id="SVGID_00000083799801811658347410000014378413273527580085_" gradientUnits="userSpaceOnUse" x1="-2912.0635" y1="1960.5015" x2="-2920.2393" y2="1931.991" gradientTransform="matrix(0.89 -0.45 0.45 0.89 2109.5918 -2905.2676)">
		<stop  offset="0" style="stop-color:#000001"/>
		<stop  offset="1" style="stop-color:#697276"/>
	</linearGradient>
	<polygon style="fill:url(#SVGID_00000083799801811658347410000014378413273527580085_);" points="356.1,124.8 378,106.9 410.5,139 
		388.6,156.9 	"/>
	<polygon class="st18" points="358.2,125.1 378.1,108.9 405.9,136.3 386,152.5 	"/>
	<polygon class="st5" points="480.1,108.4 482.4,124.6 472.5,157.1 501,117.1 498.3,96.1 	"/>
	<path class="st5" d="M463.5,70.2c-0.4,3.7-0.5,7.4-0.2,11.1c1.3,10.3,3.6,20.4,6.7,30.2c2.9,6.4,30.4-9.3,29.9-15.6l-0.2-1.8
		c-0.1-1.4,0.9-2.8,2.3-3c2.4-0.2,4.2-2.2,4.1-4.6l-0.5-3.3c-0.2-2.4-2.3-4.1-4.6-3.9l0,0c-2.3,0.1-4.1,2.1-4,4.5l0.1,3H497
		c0,0.2,0.2,0.4,0,0.5c-6.6,4.9-19.6,0.2-23.8-3c-4.8-3.6-7.4-9.4-7-15.4C465.3,69.3,464.3,69.8,463.5,70.2z"/>
	<path class="st5" d="M389.8,159.2c0,0,25.4,9,54.8,18c2.8,0.8,5,2.8,6,5.5c2.7,8.4-6.8,14.9-15,9.5l-50.1-26.6L389.8,159.2z"/>
	<path class="st5" d="M385.5,165.8c1.6,0.3,3.2-5.3,4.2-6.6c3.3-4.1-2.5-12.1-4.8-12.3c-1.3-0.2-2.6-0.2-3.9,0s-2.4,1-3.1,2.1
		c-0.6,1.9-0.3,4,0.8,5.6C380.8,158.5,383.1,162.2,385.5,165.8z"/>
	<path class="st5" d="M379,145.6c-0.4-1-1.3-7.7-2.8-7.7c-1.5-0.8,1,15.5,3.8,16.2C383,151,380,148.3,379,145.6z"/>
	<path class="st5" d="M383.1,145.9c0.1-1.1-0.1-2,0.9-2.6c0.9-0.6,2.6,0.4,3.2-1c-1.5-1.3-3.7-1.4-5.4-0.3c-2,2-3.8,10.2-1.5,12
		C384.4,152.6,382.8,148.9,383.1,145.9z"/>
	<path class="st5" d="M385.4,148.5c-0.2-1.1-0.7-1.9,0.2-2.7c0.9-0.8,2.6-0.2,2.9-1.8c-1.8-0.8-3.9-0.4-5.3,1
		c-1.4,2.4-1.1,10.8,1.5,12C388.3,154.6,385.8,151.4,385.4,148.5z"/>
	<path class="st5" d="M387.3,149.3c-0.1-0.8-0.5-1.5,0.3-2s2,0,2.3-1.1c-1.3-0.7-2.9-0.5-4,0.5c-1.1,1.7-1.4,7.9,0.5,9
		C389.3,153.9,387.6,151.4,387.3,149.3z"/>
	<path class="st5" d="M520.4,159.9L536,143l58.8,52.5c1.3,2,0.7,4.6-1.2,5.9l-54,45.8l-6.5-4.3l37.4-48.1L520.4,159.9z"/>
	<path class="st5" d="M537.1,244.3c1.2,1.1,2.8,1.4,2.5,3c-1,5.2-18.3,9.2-20,7.5c-1-0.9-1.8-1.9-2.5-3s-0.8-2.5-0.4-3.7
		c1-1.7,2.8-2.8,4.8-3.1C526.5,243.8,533.2,241,537.1,244.3z"/>
	<path class="st5" d="M517.1,255.2c-0.3,1-1,1.7-0.3,2.7s2.5,0.8,2.5,2.3c-1.9,0.5-3.9-0.3-5-2c-0.9-2.7,0.9-10.9,3.8-11.6
		C521.2,249.7,518.1,252.4,517.1,255.2z"/>
	<path class="st5" d="M520.9,255.7c-0.3,1-1,1.7-0.3,2.7s2.5,0.8,2.5,2.3c-1.9,0.5-3.9-0.3-5-2c-0.9-2.7,1-10.9,3.8-11.6
		C524.9,250.3,521.9,253,520.9,255.7z"/>
	<path class="st5" d="M523.8,256.3c-0.3,1-1,1.7-0.3,2.7s2.5,0.8,2.5,2.3c-1.9,0.5-3.9-0.3-5-2c-0.9-2.7,0.9-10.9,3.8-11.6
		C527.8,250.8,524.7,253.5,523.8,256.3z"/>
	<path class="st5" d="M525.8,256c-0.2,0.8-0.7,1.3-0.2,2s1.8,0.5,1.8,1.7c-1.4,0.4-2.9-0.2-3.7-1.5c-0.7-1.9,0.7-8,2.8-8.5
		C528.8,252,526.5,254,525.8,256z"/>
	
		<linearGradient id="SVGID_00000088129006505875968460000001894224074596982175_" gradientUnits="userSpaceOnUse" x1="-819.9843" y1="2324.4875" x2="-785.3328" y2="2324.4875" gradientTransform="matrix(-1 0 0 1 -282.3078 -2181.5046)">
		<stop  offset="0" style="stop-color:#F54EA2"/>
		<stop  offset="1" style="stop-color:#FF7676"/>
	</linearGradient>
	<path style="fill:url(#SVGID_00000088129006505875968460000001894224074596982175_);" d="M536.6,141.2c0-1.4-1.2-1-1.8-2
		c-0.2-0.7,0-1.7-0.2-2.5c-1.9,0-2.2-0.1-3.4-1.6c-1.4-1.9-3-3.8-4.8-5.4c-3.7-3.4-8.1-7.4-13.6-5.4c-4.5,1.6-6.4,4.7-8.2,8.7
		c-2.1,4.1-2.1,8.9,0,12.9c1.1,2.5,2.6,4.7,4.5,6.6c1.5,1.3,3.7,2.2,4.2,4.3c2.6-0.3,1.3,2.2,2.6,3.1c1.7,1.1,3.5-1,3.5,2.3
		c2,0.1,4.9-4.8,6.1-6.2c2.3-2.6,5.1-4.9,7.5-7.4c1.4-1.5,3.1-4,4.3-5.1C538,142.2,537.7,141.3,536.6,141.2z"/>
</g>
<g>
	
		<linearGradient id="SVGID_00000003105892984349447970000010422225253502026687_" gradientUnits="userSpaceOnUse" x1="356.8767" y1="-1244.58" x2="406.1233" y2="-1244.58" gradientTransform="matrix(1 0 0 -1 0 -1211.48)">
		<stop  offset="0" style="stop-color:#FCE38A"/>
		<stop  offset="1" style="stop-color:#F38181"/>
	</linearGradient>
	<path style="fill:url(#SVGID_00000003105892984349447970000010422225253502026687_);" d="M401.4,18.6c8,11,5.6,26.4-5.4,34.4
		s-26.4,5.6-34.4-5.4S356,21.2,367,13.2S393.4,7.6,401.4,18.6"/>
	
		<linearGradient id="SVGID_00000082361652690655629740000015305702407370339990_" gradientUnits="userSpaceOnUse" x1="374.6963" y1="-1250.9756" x2="396.6433" y2="-1250.9756" gradientTransform="matrix(1 0 0 -1 0 -1211.48)">
		<stop  offset="0" style="stop-color:#263238"/>
		<stop  offset="1" style="stop-color:#000001"/>
	</linearGradient>
	<path style="fill:url(#SVGID_00000082361652690655629740000015305702407370339990_);" d="M384.6,37.4c-3.3,2.4-5.7,3.6-8.8,5.1
		c-0.7,0.3-1.8,1.3-0.5,3.1c2.6,3.6,10.1,5.1,15.9,0.9s6.6-11.8,4-15.4c-1.3-1.8-2.6-1.1-3.1-0.5C389.8,33,387.9,35,384.6,37.4"/>
	
		<linearGradient id="SVGID_00000137820188604734383480000001104019973025259652_" gradientUnits="userSpaceOnUse" x1="352.2683" y1="-1239.4384" x2="373.8575" y2="-1239.4384" gradientTransform="matrix(1 0 0 -1 0 -1211.48)">
		<stop  offset="0" style="stop-color:#F54EA2"/>
		<stop  offset="1" style="stop-color:#FF7676"/>
	</linearGradient>
	<path style="fill:url(#SVGID_00000137820188604734383480000001104019973025259652_);" d="M368.1,18c-2.9-2-6.9-1.2-8.9,1.7
		c-1.2,1.8-1.4,3.9-0.7,5.8c-2,0-3.9,1-5.1,2.8c-2,2.9-1.2,6.9,1.7,8.9c0.4,0.3,0.9,0.5,1.3,0.7c5,2.4,13.3,0.6,17.1-2.1
		c1.2-4.5-0.2-12.9-4.2-16.7C368.9,18.6,368.5,18.3,368.1,18"/>
	
		<linearGradient id="SVGID_00000145022712802201347260000009795943446076598173_" gradientUnits="userSpaceOnUse" x1="370.8337" y1="-1226.8468" x2="393.6193" y2="-1226.8468" gradientTransform="matrix(1 0 0 -1 0 -1211.48)">
		<stop  offset="0" style="stop-color:#F54EA2"/>
		<stop  offset="1" style="stop-color:#FF7676"/>
	</linearGradient>
	<path style="fill:url(#SVGID_00000145022712802201347260000009795943446076598173_);" d="M371.1,15.8c-1-3.4,0.9-6.9,4.3-8
		c2-0.6,4.2-0.2,5.7,1.1c0.6-1.9,2.1-3.4,4.2-4.1c3.4-1,6.9,0.9,8,4.3c0.1,0.5,0.2,1,0.2,1.4c0.7,5.5-3.5,12.9-7.2,15.7
		c-4.7-0.3-12.2-4.1-14.6-9.1C371.5,16.7,371.3,16.3,371.1,15.8"/>
</g>
<g>
	
		<linearGradient id="SVGID_00000018917838129381143240000008253779713530936705_" gradientUnits="userSpaceOnUse" x1="288.7437" y1="-1302.4299" x2="338.0304" y2="-1302.4299" gradientTransform="matrix(1 0 0 -1 0 -1211.48)">
		<stop  offset="0" style="stop-color:#FCE38A"/>
		<stop  offset="1" style="stop-color:#F38181"/>
	</linearGradient>
	<path style="fill:url(#SVGID_00000018917838129381143240000008253779713530936705_);" d="M336.8,83.2c4.3,12.9-2.7,26.9-15.6,31.1
		c-12.9,4.3-26.9-2.7-31.1-15.6c-4.3-12.9,2.7-26.9,15.6-31.1C318.5,63.3,332.5,70.3,336.8,83.2"/>
	
		<linearGradient id="SVGID_00000166640296205234826760000011787476573260360326_" gradientUnits="userSpaceOnUse" x1="307.6951" y1="-1313.2439" x2="327.2547" y2="-1313.2439" gradientTransform="matrix(1 0 0 -1 0 -1211.48)">
		<stop  offset="0" style="stop-color:#263238"/>
		<stop  offset="1" style="stop-color:#000001"/>
	</linearGradient>
	<path style="fill:url(#SVGID_00000166640296205234826760000011787476573260360326_);" d="M327.2,99.9c-0.1-0.2-3.4-5.2-11.6-2.5
		s-7.9,8.7-7.8,8.9c0,0.3,0.2,0.6,0.5,0.6c0.3,0.1,0.6-0.1,0.7-0.4c0,0,1.7-3.2,7.8-5.3c6.1-2,9.4-0.5,9.4-0.4
		c0.2,0.1,0.4,0.1,0.5,0c0.1,0,0.2-0.1,0.3-0.2C327.3,100.5,327.3,100.2,327.2,99.9"/>
	
		<linearGradient id="SVGID_00000106861267291158295410000007644088424935769995_" gradientUnits="userSpaceOnUse" x1="300.0701" y1="-1299.13" x2="307.2341" y2="-1299.13" gradientTransform="matrix(1 0 0 -1 0 -1211.48)">
		<stop  offset="0" style="stop-color:#263238"/>
		<stop  offset="1" style="stop-color:#000001"/>
	</linearGradient>
	<path style="fill:url(#SVGID_00000106861267291158295410000007644088424935769995_);" d="M306.9,86.6c0.8,2.5,0.1,5-1.7,5.6
		c-1.8,0.6-3.9-1-4.8-3.5c-0.8-2.5,0-5,1.7-5.6C303.9,82.5,306.1,84.1,306.9,86.6"/>
	
		<linearGradient id="SVGID_00000165195247393590546440000002408024709173144710_" gradientUnits="userSpaceOnUse" x1="317.0301" y1="-1293.53" x2="324.1941" y2="-1293.53" gradientTransform="matrix(1 0 0 -1 0 -1211.48)">
		<stop  offset="0" style="stop-color:#263238"/>
		<stop  offset="1" style="stop-color:#000001"/>
	</linearGradient>
	<path style="fill:url(#SVGID_00000165195247393590546440000002408024709173144710_);" d="M323.9,81c0.8,2.5,0,5-1.7,5.6
		c-1.8,0.6-3.9-1-4.8-3.5c-0.8-2.5-0.1-5,1.7-5.6C320.9,76.9,323,78.5,323.9,81"/>
</g>
<g>
	
		<linearGradient id="SVGID_00000170994856307874106990000013524162658570899385_" gradientUnits="userSpaceOnUse" x1="290.8452" y1="-1367.83" x2="340.1681" y2="-1367.83" gradientTransform="matrix(1 0 0 -1 0 -1211.48)">
		<stop  offset="0" style="stop-color:#F54EA2"/>
		<stop  offset="1" style="stop-color:#FF7676"/>
	</linearGradient>
	<path style="fill:url(#SVGID_00000170994856307874106990000013524162658570899385_);" d="M336.8,168.7c-6.8,11.8-21.9,15.8-33.7,9
		c-11.8-6.8-15.8-21.9-9-33.7s21.9-15.8,33.7-9S343.6,156.9,336.8,168.7"/>
	<path class="st29" d="M316.2,175.5c0.1-0.2,1.6-6-5.9-10.3s-11.7-0.1-11.9,0.1c-0.2,0.2-0.2,0.6-0.1,0.8c0.2,0.3,0.5,0.4,0.8,0.3
		c0,0,3.6-0.9,9.2,2.4c5.6,3.2,6.6,6.7,6.6,6.8c0,0.2,0.2,0.3,0.3,0.4c0.1,0.1,0.2,0.1,0.3,0.1C315.8,176,316.1,175.8,316.2,175.5"
		/>
	<path class="st29" d="M314.6,151.6c-1.6-6.1-7.8-9.7-8.1-9.9c-0.6-0.4-1.5-0.2-1.9,0.5c-0.4,0.6-0.2,1.5,0.5,1.9
		c0,0,2.3,1.4,4.2,3.6c-1.1,0.4-2.3,1.3-3.1,2.6c-1.3,2.3-1.1,4.9,0.6,5.9s4-0.1,5.4-2.4c0.1-0.2,0.2-0.4,0.3-0.6l0,0
		c0.3,0.2,0.7,0.2,1,0.1C314.4,153,314.8,152.3,314.6,151.6"/>
	<path class="st29" d="M332.6,156.8c-0.3-0.1-6.5-3.7-12.6-2.1c-0.7,0.2-1.2,0.9-1,1.7c0.1,0.4,0.3,0.7,0.6,0.8l0,0
		c-0.1,0.2-0.3,0.4-0.4,0.6c-1.3,2.3-1.1,4.9,0.6,5.9c1.6,0.9,4-0.1,5.4-2.4c0.8-1.3,1-2.8,0.7-3.9c2.9,0.6,5.2,1.8,5.2,1.9
		c0.6,0.4,1.5,0.1,1.9-0.5C333.5,158,333.3,157.2,332.6,156.8"/>
	<path class="st29" d="M319.1,182.2L291.3,166c-1.5-0.9-2-2.8-1.1-4.2l3.9-6.8c0.9-1.5,2.8-2,4.2-1.1l27.8,16.1
		c1.5,0.9,2,2.8,1.1,4.2l-3.9,6.8C322.5,182.5,320.6,183,319.1,182.2"/>
	<path class="st30" d="M297.3,162.1l1.1,0.6l0.9-1.2l-1.1-0.6L297.3,162.1z M297.1,160.3l-1-0.6c-0.4-0.2-0.4-0.6-0.2-0.9
		c0.2-0.3,0.5-0.4,0.9-0.2l1.1,0.6l1.3-1.7c0.3-0.4,0.5-0.4,0.9-0.2c0.3,0.2,0.4,0.5,0.3,0.8c-0.1,0.2-0.1,0.1-0.2,0.3l-1.2,1.5
		l1.1,0.6l1.3-1.7c0.3-0.4,0.5-0.4,0.9-0.2c0.3,0.2,0.4,0.5,0.3,0.8c-0.1,0.2-0.1,0.1-0.2,0.3l-1.2,1.5l1,0.6
		c0.4,0.2,0.4,0.6,0.2,0.9s-0.5,0.4-0.9,0.2l-1.1-0.6l-0.9,1.2l1,0.6c0.4,0.2,0.4,0.6,0.2,0.9c-0.2,0.3-0.5,0.4-0.9,0.2l-1.1-0.6
		l-1.3,1.7c-0.3,0.4-0.5,0.4-0.9,0.2c-0.3-0.2-0.4-0.5-0.3-0.8c0.1-0.2,0.1-0.1,0.2-0.3l1.2-1.5l-1.1-0.6l-1.3,1.7
		c-0.3,0.4-0.5,0.4-0.9,0.2c-0.3-0.2-0.4-0.5-0.3-0.8c0.1-0.2,0.1-0.1,0.2-0.3l1.2-1.5l-1-0.6c-0.4-0.2-0.4-0.6-0.2-0.9
		c0.2-0.3,0.5-0.4,0.9-0.2l1.1,0.6L297.1,160.3z"/>
	<path class="st30" d="M308.1,170.6c0.2-0.4,0.2-0.8-0.2-1c-0.4-0.2-0.8,0-1,0.3c-0.2,0.4-0.2,0.8,0.2,1
		C307.5,171.1,307.9,171,308.1,170.6 M305.7,169.3c0.6-1,1.8-1.4,2.8-0.8s1.2,1.9,0.7,2.8s-1.8,1.4-2.8,0.8
		C305.4,171.5,305.2,170.2,305.7,169.3 M310.4,163.7c0.3-0.2,0.5-0.2,0.7-0.1c0.4,0.2,0.5,0.7,0.3,1c0,0.1-0.1,0.2-0.3,0.3l-7.9,4.9
		c-0.3,0.1-0.4,0.2-0.7,0.1c-0.3-0.2-0.5-0.6-0.3-1c0.1-0.2,0.3-0.3,0.4-0.4L310.4,163.7z M306.8,163.7c0.2-0.4,0.2-0.8-0.2-1
		c-0.4-0.2-0.8,0-1,0.3s-0.2,0.8,0.2,1S306.6,164,306.8,163.7 M304.5,162.3c0.6-1,1.8-1.4,2.8-0.8c1,0.6,1.2,1.9,0.7,2.8
		c-0.6,1-1.8,1.4-2.8,0.8C304.2,164.5,303.9,163.3,304.5,162.3"/>
	<path class="st30" d="M314.4,166.6c0.3-0.5,0.8-0.6,1.2-0.3c0.5,0.3,0.6,0.8,0.4,1.2l-2.5,4.3c-0.3,0.5-0.8,0.6-1.2,0.3
		c-0.5-0.3-0.6-0.8-0.4-1.2L314.4,166.6z M310.5,173.2c0.3-0.5,0.9-0.6,1.4-0.4c0.5,0.3,0.6,0.9,0.4,1.4s-0.9,0.6-1.4,0.4
		C310.3,174.3,310.2,173.7,310.5,173.2"/>
	<path class="st30" d="M320.5,170.5c-0.3-0.2-1-0.2-1.2,0.2s-0.2,0.8,0,1.5v0.1h0.1c0.8,0,1.3-0.1,1.5-0.5
		C321.2,171.3,320.9,170.8,320.5,170.5 M317.8,173.3c-0.7,0.1-1.5,0.2-1.9,0.9c-0.5,0.8-0.2,1.6,0.5,2c0.6,0.4,1.2,0.3,1.9,0.2h0.1
		L317.8,173.3L317.8,173.3z M319.5,179.8c-0.2-0.1-0.3-0.3-0.4-0.5l-0.3-1.4h-0.1c-1.3,0.3-2.2,0.2-3-0.3c-1.3-0.8-2.2-2.3-1.2-3.9
		c0.8-1.3,2.2-1.5,3-1.5h0.2V172c-0.2-0.8-0.1-1.4,0.2-1.9c0.7-1.3,2.2-1.2,3.3-0.6c0.9,0.5,1.9,1.8,1.2,3c-0.6,1.1-2.1,1.2-2.5,1.2
		h-0.2l0.5,2.4l0.9-0.3c0.5-0.2,0.8-0.2,1.1-0.1c0.2,0.1,0.4,0.5,0.1,0.9c-0.2,0.3-0.7,0.5-1.2,0.7l-0.6,0.2l0.3,1.5
		c0,0.3,0.1,0.4-0.1,0.6C320.4,179.8,319.9,180,319.5,179.8"/>
</g>
</svg>
