<svg id="Layer_1" data-name="Layer 1" xmlns="http://www.w3.org/2000/svg" xmlns:xlink="http://www.w3.org/1999/xlink" viewBox="0 0 309.11 282.48"><defs><linearGradient id="linear-gradient" x1="1743.55" y1="459.65" x2="1825.49" y2="459.65" gradientTransform="matrix(0.96, -0.28, 0.28, 0.96, -1624.33, 130.96)" gradientUnits="userSpaceOnUse"><stop offset="0" stop-color="#ffed45"/><stop offset="0.99" stop-color="#fcb41c"/></linearGradient><linearGradient id="linear-gradient-2" x1="1730.62" y1="500.8" x2="1790.28" y2="500.8" xlink:href="#linear-gradient"/><linearGradient id="linear-gradient-3" x1="1684.2" y1="482.44" x2="1724.55" y2="482.44" gradientTransform="matrix(0.96, -0.28, 0.28, 0.96, -1624.33, 130.96)" gradientUnits="userSpaceOnUse"><stop offset="0" stop-color="#00695c"/><stop offset="1" stop-color="#81c784"/></linearGradient><linearGradient id="linear-gradient-4" x1="1713.59" y1="533.4" x2="1760.75" y2="533.4" xlink:href="#linear-gradient"/><linearGradient id="linear-gradient-5" x1="1676.69" y1="518.38" x2="1703.12" y2="518.38" xlink:href="#linear-gradient-3"/><linearGradient id="linear-gradient-6" x1="1702.48" y1="565.38" x2="1740.53" y2="565.38" xlink:href="#linear-gradient"/><linearGradient id="linear-gradient-7" x1="1655.62" y1="555.69" x2="1685.74" y2="555.69" xlink:href="#linear-gradient-3"/><linearGradient id="linear-gradient-8" x1="1770.11" y1="-266.48" x2="1836.09" y2="-266.48" gradientTransform="translate(-1530.22 -114.32) rotate(16.69)" xlink:href="#linear-gradient"/><linearGradient id="linear-gradient-9" x1="1759.7" y1="-233.34" x2="1807.74" y2="-233.34" gradientTransform="translate(-1530.22 -114.32) rotate(16.69)" xlink:href="#linear-gradient"/><linearGradient id="linear-gradient-10" x1="1722.31" y1="-248.12" x2="1754.81" y2="-248.12" gradientTransform="translate(-1530.22 -114.32) rotate(16.69)" xlink:href="#linear-gradient"/><linearGradient id="linear-gradient-11" x1="1745.98" y1="-207.08" x2="1783.96" y2="-207.08" gradientTransform="translate(-1530.22 -114.32) rotate(16.69)" xlink:href="#linear-gradient"/><linearGradient id="linear-gradient-12" x1="1716.26" y1="-219.18" x2="1737.55" y2="-219.18" gradientTransform="translate(-1530.22 -114.32) rotate(16.69)" xlink:href="#linear-gradient"/><linearGradient id="linear-gradient-13" x1="1737.04" y1="-181.34" x2="1767.67" y2="-181.34" gradientTransform="translate(-1530.22 -114.32) rotate(16.69)" xlink:href="#linear-gradient"/><linearGradient id="linear-gradient-14" x1="1699.3" y1="-189.14" x2="1723.55" y2="-189.14" gradientTransform="translate(-1530.22 -114.32) rotate(16.69)" xlink:href="#linear-gradient-3"/><linearGradient id="linear-gradient-15" x1="-1008.02" y1="247.69" x2="-1008.02" y2="241.18" gradientTransform="matrix(-1, 0, 0, 1, -846.24, 0)" gradientUnits="userSpaceOnUse"><stop offset="0.01" stop-color="#ffa726"/><stop offset="1" stop-color="#f26522"/></linearGradient><linearGradient id="linear-gradient-16" x1="77.14" y1="120.21" x2="60.96" y2="201.52" gradientTransform="matrix(1.23, -0.06, 0.06, 1.22, 11.97, -59.01)" xlink:href="#linear-gradient"/><linearGradient id="linear-gradient-17" x1="112.96" y1="126" x2="103.3" y2="174.49" gradientTransform="translate(38.7 12.64) rotate(11.15)" xlink:href="#linear-gradient"/><linearGradient id="linear-gradient-18" x1="-224.76" y1="251.02" x2="-231.51" y2="284.92" gradientTransform="matrix(-0.92, 0.4, 0.4, 0.92, -236.99, 41.65)" xlink:href="#linear-gradient"/><linearGradient id="linear-gradient-19" x1="97.44" y1="226.91" x2="97.44" y2="220.41" gradientTransform="matrix(1, 0, 0, 1, 0, 0)" xlink:href="#linear-gradient-15"/><linearGradient id="linear-gradient-20" x1="17.95" y1="108.14" x2="19.94" y2="131.42" gradientUnits="userSpaceOnUse"><stop offset="0" stop-color="#ff5252"/><stop offset="0.78" stop-color="#c51162"/></linearGradient><linearGradient id="linear-gradient-21" x1="24.2" y1="129.87" x2="28.52" y2="144.7" gradientUnits="userSpaceOnUse"><stop offset="0" stop-color="#c51162"/><stop offset="1" stop-color="#072759"/></linearGradient><linearGradient id="linear-gradient-22" x1="26.63" y1="239.26" x2="26.63" y2="239.34" gradientTransform="matrix(0.95, 0.3, -0.3, 0.95, 55.44, 25.43)" gradientUnits="userSpaceOnUse"><stop offset="0" stop-color="#ffcdd2"/><stop offset="1" stop-color="#e57373"/></linearGradient><linearGradient id="linear-gradient-23" x1="21.85" y1="248.88" x2="21.8" y2="245.15" gradientTransform="matrix(0.95, 0.3, -0.3, 0.95, 55.44, 25.43)" gradientUnits="userSpaceOnUse"><stop offset="0" stop-color="#26c6da"/><stop offset="1" stop-color="#072759"/></linearGradient><linearGradient id="linear-gradient-24" x1="27" y1="236.56" x2="27" y2="255.5" xlink:href="#linear-gradient-23"/><linearGradient id="linear-gradient-25" x1="34.29" y1="270.45" x2="34.29" y2="270.54" gradientTransform="translate(-30.23 1.01) rotate(-5.36)" xlink:href="#linear-gradient-22"/><linearGradient id="linear-gradient-26" x1="29.51" y1="280.07" x2="29.46" y2="276.34" gradientTransform="translate(-30.23 1.01) rotate(-5.36)" xlink:href="#linear-gradient-23"/><linearGradient id="linear-gradient-27" x1="34.66" y1="267.75" x2="34.66" y2="286.69" gradientTransform="translate(-30.23 1.01) rotate(-5.36)" xlink:href="#linear-gradient-23"/><linearGradient id="linear-gradient-28" x1="37.02" y1="137.08" x2="43.29" y2="200.85" gradientTransform="translate(-30.23 1.01) rotate(-5.36)" xlink:href="#linear-gradient-21"/><linearGradient id="linear-gradient-29" x1="27.01" y1="162.77" x2="22.6" y2="168.59" gradientUnits="userSpaceOnUse"><stop offset="0" stop-color="#263238"/><stop offset="1" stop-color="#000001"/></linearGradient><linearGradient id="linear-gradient-30" x1="21.07" y1="214.58" x2="21.07" y2="168.5" gradientTransform="matrix(1, 0, 0, 1, 0, 0)" xlink:href="#linear-gradient-23"/><linearGradient id="linear-gradient-31" x1="8.65" y1="136.73" x2="20.31" y2="136.73" xlink:href="#linear-gradient-21"/><linearGradient id="linear-gradient-32" x1="304.12" y1="177.47" x2="305.85" y2="177.26" gradientTransform="matrix(-0.99, 0.17, 0.17, 0.99, 318.44, -71.37)" gradientUnits="userSpaceOnUse"><stop offset="0" stop-color="#006064"/><stop offset="1" stop-color="#26a69a"/></linearGradient><linearGradient id="linear-gradient-33" x1="292.75" y1="155.01" x2="295.58" y2="159.43" gradientTransform="matrix(-0.91, 0.41, 0.41, 0.91, 249, -106.63)" gradientUnits="userSpaceOnUse"><stop offset="0" stop-color="#26a69a"/><stop offset="1" stop-color="#006064"/></linearGradient><linearGradient id="linear-gradient-34" x1="77.18" y1="137.62" x2="177.98" y2="137.62" gradientUnits="userSpaceOnUse"><stop offset="0" stop-color="#263238"/><stop offset="1" stop-color="#333"/></linearGradient><linearGradient id="linear-gradient-35" x1="164.11" y1="69.41" x2="84.63" y2="69.41" gradientUnits="userSpaceOnUse"><stop offset="0" stop-color="#42e695"/><stop offset="1" stop-color="#3bb2b8"/></linearGradient><linearGradient id="linear-gradient-36" x1="147.25" y1="110.3" x2="67.78" y2="110.3" xlink:href="#linear-gradient-35"/><linearGradient id="linear-gradient-37" x1="164.11" y1="146.38" x2="84.63" y2="146.38" xlink:href="#linear-gradient-35"/></defs><title>home_02</title><path d="M250.33,37.95a107.5,107.5,0,0,0-20.82,6.77c-3.21,1.39-6.38,3.48-9.72,4.5a29.85,29.85,0,0,0-10.16,5.22,127,127,0,0,0-16.25,15.16q-3.85,4.22-7.34,8.75C183.2,82,180,85.5,181.52,90.48a6.64,6.64,0,0,0,6.38,4.68c4.7-.23,6.52-3.11,9.1-6.5q3.28-4.29,6.89-8.31A168.46,168.46,0,0,1,219,65.86,53,53,0,0,0,226,58.31c2-2.5,4.87-4.45,7.37-6.39a199.5,199.5,0,0,1,17.8-12A1.1,1.1,0,0,0,250.33,37.95Z" style="fill:url(#linear-gradient)"/><path d="M235.66,108.95c-1.63-1.95-2.47-4.41-4.63-5.85a18.5,18.5,0,0,0-6.22-2.42c-5.48-1.17-11.33-.47-16.72.85-10,2.46-21.89,7.87-28.22,16.32-2.16,2.88-2.57,5.81-.9,9a7.06,7.06,0,0,0,7.45,3.37c3.53-.54,5.18-3.45,7.67-5.61a40.21,40.21,0,0,1,11.78-6.71c5-2,10-3.84,14.85-6.11,3.61-1.68,10.87-4.9,14.53-2.32C235.6,109.77,235.89,109.23,235.66,108.95Z" style="fill:url(#linear-gradient-2)"/><path d="M149,94c-10.48-.82-19,8.6-23,17.4-.14.31.13.79.51.64,3.3-1.31,6.25-3.33,9.64-4.4a22.28,22.28,0,0,1,9.73-.55c6.18,1,7.49,7.39,8.72,12.67.92,3.95,5.59,6.17,9.31,5.07,4.2-1.24,5.84-5.32,5.07-9.31C166.93,105.19,160.31,94.84,149,94Z" style="fill:url(#linear-gradient-3)"/><path d="M218.11,153.95c-2.41-3.62-4.47-7.08-8.11-9.63a24.59,24.59,0,0,0-13.45-4.54c-10.29-.14-22.16,7.07-25.45,17.06-2.39,7.25,7.54,11.54,12.34,6.72,2.12-2.13,3.52-4.7,6-6.48a25.59,25.59,0,0,1,8.57-3.83c5.72-1.47,13.59-1.77,18.56,1.92C217.43,155.78,218.77,154.95,218.11,153.95Z" style="fill:url(#linear-gradient-4)"/><path d="M146,135.43a14.8,14.8,0,0,0-11.4-1.73c-3.68,1-5.4,3.42-8,5.87-.53.5.07,1.57.78,1.26,3.56-1.54,9.92,2.56,12.25,5.11,3.31,3.62,4,9,3.74,13.64-.44,9.47,15,9.32,14.8-.26S154.67,140.35,146,135.43Z" style="fill:url(#linear-gradient-5)"/><path d="M203.59,176.52c-4.86-4.23-9.71-4.75-15.65-2-6.69,3.05-11.62,8.23-16.69,13.4-6.78,6.92,4.38,17.48,11,10.32,3.67-4,6.82-8.18,10.25-12.34,2.27-2.76,6.69-7.27,10.47-7.66A1,1,0,0,0,203.59,176.52Z" style="fill:url(#linear-gradient-6)"/><path d="M146.64,190.41c-2.39-.44-3.89-2.09-5.47-3.87-2.52-2.83-5.17-5.77-8.67-7.4a14.59,14.59,0,0,0-8.74-1.28c-3.26.53-4.58,1.84-6.39,4.42a1,1,0,0,0,1,1.58c5.18-1.15,8.44,7.94,10.6,10.9,3.58,4.92,8.26,9.23,14.44,10.36C152.94,206.85,156.2,192.15,146.64,190.41Z" style="fill:url(#linear-gradient-7)"/><path d="M217.64,107.29a73.94,73.94,0,0,0-47.42,34.16c-1,1.74-2.08,3.57-3,5.45a241.13,241.13,0,0,1,13.21-41,250.71,250.71,0,0,1,17.08-33.08c.2-.33-.32-.61-.53-.29a230,230,0,0,0-27.37,60.66c-.64,2.23-1.25,4.48-1.83,6.73a103.5,103.5,0,0,0-9.34-29.59c-1.87-3.9-3.71-9.23-7.49-11.72-2.41-1.59-6.05-1.5-7.73,1.08,0,0,0,.07.06,0a4.89,4.89,0,0,1,5.59-1.57c2.28.7,3.85,2.79,5,4.75a79.61,79.61,0,0,1,5.69,12.5,176.49,176.49,0,0,1,7.3,26c0,.23-1.14,7-1.83,10.31-.66,1.71-1.41,5.79-1.13,5.86-1.6,8.92-3.45,29.54-3.49,30.29l-.18-.42a.6.6,0,0,0-.38-.36c-5.45-8-6.8-17.37-8.89-26.7-1.68-7.45-4.32-18.55-12.35-21.7a.06.06,0,0,0-.06.1c8.05,5.66,10,15.85,11.78,24.92,1.73,8.63,3.24,18.06,9.08,25,.25.3.68,7.08.67,10.65s0,10.43-.21,10.43c-7,.14-11.05-6.29-14.56-11.37-3.07-4.45-6.8-8.86-12.49-9.6-.11,0-.16.16,0,.18,12.66,2.23,13.12,22.54,27.12,22.21.2,0,1.76,16.9,3.21,25.36.07.4.77.3.71-.11q-1.83-12.94-2.37-26c6.58-2,11.13-8.13,14.64-13.67,4.05-6.41,7.33-13,13.59-17.55a.14.14,0,0,0-.14-.23c-5.74,3.16-9.51,9.16-12.92,14.54-4,6.38-8.12,12.38-15.2,15.52-.28-7.9-.21-15.8.26-23.69,3.83-1.39,6.74-5.62,8.54-9,2.32-4.35,3.52-9.15,5.27-13.74,2-5.13,4.71-9.78,9.4-12.85a22.8,22.8,0,0,1,14.7-3.61c.11,0,.13-.18,0-.19a22.62,22.62,0,0,0-23.19,11.81c-2.53,4.65-3.81,9.82-5.86,14.67a30.6,30.6,0,0,1-4,7.1,20.2,20.2,0,0,1-4.77,4.14q.46-6.78,1.3-13.54,1-7.88,2.51-15.68a90.19,90.19,0,0,1,4.72-10.49,74.39,74.39,0,0,1,8.55-12.23,76.85,76.85,0,0,1,23-18.27,72,72,0,0,1,15.88-6C217.9,107.52,217.81,107.25,217.64,107.29Z" style="fill:#424242"/><path d="M308.52,143.23a86.57,86.57,0,0,0-17-4.59c-2.78-.47-5.83-.46-8.54-1.24a24,24,0,0,0-9.14-1,102.29,102.29,0,0,0-17.63,3.07q-4.45,1.15-8.8,2.68c-3.54,1.24-7.23,2.16-8.39,6.19a5.35,5.35,0,0,0,2.24,6c3.27,1.92,5.76.77,9-.38q4.1-1.45,8.3-2.57a135.66,135.66,0,0,1,16.56-3.13,42.66,42.66,0,0,0,8.09-2c2.44-.82,5.24-.86,7.78-1.06a160.65,160.65,0,0,1,17.28-.26A.88.88,0,0,0,308.52,143.23Z" style="fill:url(#linear-gradient-8)"/><path d="M267.38,184.65c-.24-2,.27-4.06-.55-6a14.9,14.9,0,0,0-3.13-4.37A30.51,30.51,0,0,0,252,167.52c-7.83-2.75-18.22-4.33-26.21-1.41a6.35,6.35,0,0,0-4.59,5.7,5.69,5.69,0,0,0,3.54,5.55c2.62,1.19,5,0,7.64-.41a32.38,32.38,0,0,1,10.9.66c4.24.89,8.41,1.8,12.7,2.42,3.17.46,9.49,1.48,10.82,4.83C267,185.18,267.41,184.95,267.38,184.65Z" style="fill:url(#linear-gradient-9)"/><path d="M215.5,136.39c-6.71-5.16-16.61-2.57-23.2,1.59-.24.15-.26.59.07.66,2.8.57,5.68.5,8.44,1.27a17.94,17.94,0,0,1,6.81,3.91c3.73,3.38,1.8,8.28.3,12.38-1.12,3.07,1.05,6.62,4,7.52,3.38,1,6.28-1,7.52-4C222.68,151.88,222.77,142,215.5,136.39Z" style="fill:url(#linear-gradient-10)"/><path d="M235.74,207.28c0-3.5.1-6.74-1.23-10.07a19.8,19.8,0,0,0-7.07-9c-6.88-4.63-18.06-5-24.67.31-4.8,3.84,0,11.1,5.37,10,2.37-.5,4.44-1.62,6.92-1.72a20.61,20.61,0,0,1,7.47,1.19c4.5,1.53,9.95,4.79,11.67,9.47C234.48,208.22,235.75,208.25,235.74,207.28Z" style="fill:url(#linear-gradient-11)"/><path d="M195.28,163.08a11.92,11.92,0,0,0-6.92-6.18c-2.92-.94-5.14-.07-8,.45-.57.11-.64,1.09,0,1.19,3.08.52,5.56,6.09,6,8.84.64,3.9-1.28,7.79-3.48,10.84-4.46,6.19,6,12.87,10.1,6.33S198.94,170.2,195.28,163.08Z" style="fill:url(#linear-gradient-12)"/><path d="M216,216.12c-1.41-5-4.46-7.47-9.66-8.26-5.85-.88-11.46.44-17.15,1.69-7.62,1.68-4.74,13.72,2.86,11.79,4.23-1.08,8.2-2.51,12.34-3.82,2.75-.86,7.71-2,10.43-.56A.79.79,0,0,0,216,216.12Z" style="fill:url(#linear-gradient-13)"/><path d="M171.5,200.42c-1.42-1.34-1.7-3.12-2-5-.46-3-.95-6.16-2.59-8.81a11.75,11.75,0,0,0-5.33-4.71c-2.43-1.08-3.9-.78-6.25.17a.79.79,0,0,0,0,1.51c4,1.5,2.2,9.07,2.35,12,.25,4.9,1.51,9.86,5.18,13.34C168.51,214.29,177.18,205.8,171.5,200.42Z" style="fill:url(#linear-gradient-14)"/><path d="M256,175.61a59.54,59.54,0,0,0-47,2.18c-1.47.72-3,1.49-4.44,2.34a194.18,194.18,0,0,1,26.94-21.81,201.89,201.89,0,0,1,26.07-14.8c.28-.13.05-.55-.23-.43A185.24,185.24,0,0,0,212.13,172q-2.13,1.83-4.19,3.73a83.35,83.35,0,0,0,6.72-24.06c.45-3.46,1.56-7.85.1-11.2-.93-2.13-3.42-3.68-5.69-2.67,0,0,0,.06,0,.05a3.94,3.94,0,0,1,4.46,1.4c1.23,1.48,1.37,3.57,1.29,5.41a64.11,64.11,0,0,1-1.66,10.93,142.12,142.12,0,0,1-6.52,20.76c-.07.18-3.84,4.21-5.77,6.15-1.2.87-3.5,3.29-3.34,3.46-5,5.31-15.33,18.4-15.68,18.89l.07-.36a.48.48,0,0,0-.09-.41c-.14-7.82,3.06-14.7,5.75-21.92,2.15-5.76,5.25-14.41,1.22-20.07a0,0,0,0,0-.08,0c2.94,7.36-.25,15.07-3,22-2.63,6.58-5.76,13.61-4.89,20.87a62.13,62.13,0,0,1-4.23,7.48c-1.56,2.38-4.61,7-4.74,6.94-4.78-3-4.69-9.11-4.81-14.08-.11-4.35-.69-9-4.2-12-.07-.06-.18,0-.11.1,7.56,7.07-1.07,21,8.51,26.91.14.09-6.25,12.17-9,18.51-.13.3.39.54.53.24q4.46-9.53,9.84-18.58c5.31,1.57,11.09-.58,15.88-2.78,5.55-2.54,10.64-5.51,16.88-5.86a.11.11,0,0,0,0-.22c-5.26-.39-10.45,2-15.12,4.12-5.53,2.52-10.93,4.77-17.08,3.78q4.93-8.18,10.6-15.86c3.2.75,7-.83,9.73-2.32,3.48-1.92,6.4-4.62,9.6-6.94,3.58-2.6,7.48-4.52,12-4.53a18.36,18.36,0,0,1,11.5,4c.07.06.17-.06.1-.12a18.21,18.21,0,0,0-20.84-2.24c-3.75,2-6.89,4.94-10.41,7.32a24.64,24.64,0,0,1-5.83,3,16.27,16.27,0,0,1-5,.69q3.29-4.37,6.83-8.56,4.14-4.87,8.59-9.47a72.62,72.62,0,0,1,7.8-5A59.9,59.9,0,0,1,219,175.11a61.89,61.89,0,0,1,23.55-2.2,58,58,0,0,1,13.36,2.92C256,175.87,256.09,175.66,256,175.61Z" style="fill:#424242"/><path d="M151.94,236.44h19.67a1.12,1.12,0,0,1,1.09,1.37L172,241a1.12,1.12,0,0,1-1.09.87H152.67a1.12,1.12,0,0,1-1.09-.87l-.73-3.2A1.12,1.12,0,0,1,151.94,236.44Z" style="fill:#ffa726"/><path d="M170.61,242.4l-1.58,11a1.51,1.51,0,0,1-1.5,1.3H156a1.51,1.51,0,0,1-1.5-1.3l-1.58-11Z" style="fill:url(#linear-gradient-15)"/><path d="M51.22,151.54c-.85-3.88-1.25-8,.81-11.68a7.87,7.87,0,0,1,3.88-3.49c5.33-2.12,10.06,2.57,12.74,7.14,2.06,3.52,3.75,7.38,7.32,9.71a8.1,8.1,0,0,0,4.59,1.39c6-.16,7.64-6.86,5.7-11.47-1.63-3.87-5-6.68-8-9.66a65.14,65.14,0,0,1-16.6-28.18c-1.9-6.68-2.58-14.39,2.55-19.79A9.6,9.6,0,0,1,74.64,83c4.43,1.77,5.26,6,6,10,.58,3.28,1.31,6.81,4.16,8.84a4.94,4.94,0,0,0,6.05.05c1.72-1.46,1.52-3.66,1.4-5.66a48.45,48.45,0,0,1,12-34.65c4.56-5.14,12.38-9.49,18-4.83a9.64,9.64,0,0,1,3,4.63c1.3,4.28.32,8.58-.66,12.76L119.18,97A2.47,2.47,0,0,0,123,99.56l16-11a10,10,0,0,1,5-1.82c5.9-.37,7.57,4.71,7.64,9,.15,9.55-5,18.58-11.76,25.36s-15.23,11.69-23.44,16.7c-2.55,1.56-5.23,3.27-6.14,6.27a4.58,4.58,0,0,0,1.19,4.82c2.28,2,5.49.61,7.85-.95,7.34-4.83,13.44-11.65,22.38-13.69a16,16,0,0,1,9.54.62c9.38,3.8,8.89,13.8,4.45,20.22-4.68,6.76-11.67,11.21-18.3,15.89-13.31,9.4-31.83,26.37-49.7,21C77.2,188.93,68,181,61.36,172.6A52.34,52.34,0,0,1,51.22,151.54Z" style="fill:url(#linear-gradient-16)"/><path d="M99,215.85a.47.47,0,0,1-.46-.43,478.44,478.44,0,0,1,7.13-127.11.47.47,0,1,1,.92.18,477.49,477.49,0,0,0-7.11,126.86.47.47,0,0,1-.43.5Z" style="fill:#01579b"/><path d="M100.85,126.87a23.84,23.84,0,0,1-8.46-1.48c-6.7-2.54-11.28-7.92-13.95-12-3.45-5.26-5.77-11.31-7.81-16.65a.47.47,0,0,1,.87-.33c2,5.3,4.32,11.3,7.72,16.48,2.59,3.95,7,9.17,13.5,11.62,8,3,18.4,1.13,27-5,7.92-5.61,13.67-13.58,19.23-21.29a.47.47,0,0,1,.76.55c-5.61,7.77-11.41,15.8-19.45,21.5A34.23,34.23,0,0,1,100.85,126.87Z" style="fill:#01579b"/><path d="M95.54,178.51a28.19,28.19,0,0,1-8.94-1.41c-11.45-3.82-18.71-14.82-23.17-22.76a.47.47,0,0,1,.81-.46c4.38,7.81,11.5,18.61,22.65,22.33,9.51,3.18,21.16.72,31.16-6.58l1.91-1.39c8.48-6.17,16.48-12,24.87-20.6a.47.47,0,1,1,.67.65c-8.44,8.67-16.48,14.51-25,20.7l-1.91,1.39C111.32,175.71,103.16,178.51,95.54,178.51Z" style="fill:#01579b"/><path d="M87.8,183a8,8,0,0,1,1.74-5.43,3.8,3.8,0,0,1,2.22-1.2c2.74-.39,4.42,2.38,5.14,4.85.56,1.9.9,3.92,2.3,5.44a3.88,3.88,0,0,0,2,1.19c2.82.62,4.38-2.36,4-4.77-.31-2-1.56-3.74-2.61-5.49a31.83,31.83,0,0,1-4.5-15.25c-.11-3.38.46-7.11,3.5-9.06a4.6,4.6,0,0,1,5.17,0c1.87,1.35,1.76,3.47,1.63,5.41-.11,1.62-.18,3.37.92,4.66a2.37,2.37,0,0,0,2.83.73c1-.49,1.14-1.55,1.31-2.51a23.72,23.72,0,0,1,9.66-15c2.73-1.9,6.9-3.06,9-.21a4.7,4.7,0,0,1,.86,2.54c.11,2.18-.85,4.09-1.79,6L126,165a1.19,1.19,0,0,0,1.49,1.65l8.75-3.34a4.79,4.79,0,0,1,2.55-.28c2.8.51,3,3.1,2.53,5.16-1,4.54-4.48,8.22-8.46,10.64s-8.49,3.77-12.92,5.19c-1.38.44-2.83.94-3.6,2.26a2.25,2.25,0,0,0,0,2.42c.84,1.2,2.5.92,3.79.46,4-1.44,7.65-4,12.07-3.89a7.65,7.65,0,0,1,4.4,1.4c4,2.88,2.56,7.56-.27,10.08-3,2.66-6.77,4-10.42,5.4-7.33,2.91-18,8.79-25.72,4.19-4.54-2.69-7.92-7.51-10.06-12.25A25.62,25.62,0,0,1,87.8,183Z" style="fill:url(#linear-gradient-17)"/><path d="M102.75,219.16h-.08a.47.47,0,0,1-.38-.54,235.39,235.39,0,0,1,18.13-59.36.47.47,0,1,1,.85.39,234.48,234.48,0,0,0-18.06,59.12A.47.47,0,0,1,102.75,219.16Z" style="fill:#01579b"/><path d="M117.34,177.69a12.86,12.86,0,0,1-7.36-2.13,14.91,14.91,0,0,1-5.23-7.4,42.44,42.44,0,0,1-1.74-8.83.47.47,0,0,1,.41-.52.46.46,0,0,1,.52.41,41.77,41.77,0,0,0,1.69,8.64,14,14,0,0,0,4.88,6.94c3.34,2.32,8.33,2.6,13,.73,4.32-1.72,7.93-4.82,11.42-7.81a.47.47,0,0,1,.61.71c-3.54,3-7.21,6.18-11.68,8A17.74,17.74,0,0,1,117.34,177.69Z" style="fill:#01579b"/><path d="M109.32,201.55a14.92,14.92,0,0,1-8.06-2.2c-5-3.18-7.13-9.27-8.31-13.58a.47.47,0,0,1,.9-.25c1.14,4.16,3.19,10,7.91,13,4,2.56,9.68,2.74,15.14.47l1.05-.43a86.63,86.63,0,0,0,14-6.85.47.47,0,1,1,.5.79,87.31,87.31,0,0,1-14.15,6.93l-1,.43A20.83,20.83,0,0,1,109.32,201.55Z" style="fill:#01579b"/><path d="M98.88,192.69a5.57,5.57,0,0,0-2-3.44,2.66,2.66,0,0,0-1.7-.48c-1.93.15-2.65,2.29-2.77,4.09a8.84,8.84,0,0,1-.75,4.06A2.72,2.72,0,0,1,90.48,198c-1.83.85-3.34-.95-3.45-2.65a11.15,11.15,0,0,1,1-4.14,22.25,22.25,0,0,0,.76-11.09c-.44-2.32-1.39-4.78-3.76-5.66a3.22,3.22,0,0,0-3.53.78c-1.07,1.2-.68,2.63-.3,3.94a4.4,4.4,0,0,1,.08,3.32,1.65,1.65,0,0,1-1.82.92c-.74-.19-1-.89-1.28-1.52a16.58,16.58,0,0,0-8.86-8.77c-2.15-.89-5.17-1-6.16,1.22a3.29,3.29,0,0,0-.2,1.86A8.35,8.35,0,0,0,65,180l5.07,6.19a.83.83,0,0,1-.77,1.35l-6.48-1a3.35,3.35,0,0,0-1.78.19c-1.84.77-1.58,2.57-.94,3.91a12.38,12.38,0,0,0,7.38,6,41.34,41.34,0,0,0,9.6,1.59,4.12,4.12,0,0,1,2.8,1,1.57,1.57,0,0,1,.37,1.65c-.39.95-1.57,1-2.52.89-2.95-.38-5.82-1.54-8.83-.83a5.35,5.35,0,0,0-2.79,1.62c-2.26,2.56-.6,5.54,1.71,6.84s5.22,1.67,7.93,2.11c5.44.87,13.6,3.28,18.19-1,2.69-2.53,4.27-6.33,5-9.88A17.91,17.91,0,0,0,98.88,192.69Z" style="fill:url(#linear-gradient-18)"/><path d="M94.08,219.8a.47.47,0,0,1-.43-.29,163.75,163.75,0,0,0-21.26-37.58.47.47,0,0,1,.74-.56,164.7,164.7,0,0,1,21.38,37.79.47.47,0,0,1-.43.64Z" style="fill:#01579b"/><path d="M75.4,194a13.46,13.46,0,0,1-2.16-.18c-3.34-.54-6.33-2.14-9.22-3.68a.47.47,0,0,1,.44-.82c2.82,1.51,5.74,3.06,8.93,3.58,3.44.56,6.75-.37,8.65-2.43a9.64,9.64,0,0,0,2.25-5.39,29.07,29.07,0,0,0-.15-6.12.47.47,0,0,1,.42-.51.47.47,0,0,1,.51.42,29.82,29.82,0,0,1,.15,6.32,10.56,10.56,0,0,1-2.49,5.92A9.82,9.82,0,0,1,75.4,194Z" style="fill:#01579b"/><path d="M84,209.09a15.7,15.7,0,0,1-2.73-.24l-.79-.14a61.13,61.13,0,0,1-10.72-2.59.47.47,0,0,1,.31-.88,60.33,60.33,0,0,0,10.57,2.55l.79.14c4,.71,7.81-.25,10.13-2.57,2.73-2.73,3.24-7,3.38-10a.47.47,0,0,1,.93,0c-.15,3.14-.69,7.66-3.65,10.62A11.52,11.52,0,0,1,84,209.09Z" style="fill:#01579b"/><path d="M107.28,215.66H87.6A1.12,1.12,0,0,0,86.51,217l.73,3.2a1.12,1.12,0,0,0,1.09.87h18.21a1.12,1.12,0,0,0,1.09-.87l.73-3.2A1.12,1.12,0,0,0,107.28,215.66Z" style="fill:#ffa726"/><path d="M88.6,221.62l1.58,11a1.51,1.51,0,0,0,1.5,1.3H103.2a1.51,1.51,0,0,0,1.5-1.3l1.58-11Z" style="fill:url(#linear-gradient-19)"/><path d="M14.38,99.72c4.43-.85,10-.12,13.25,2.91,3.41,3.21,3.61,8.27,3.85,12.44a42,42,0,0,1-1.12,12.2c-3.84-.75-16-.31-19.61,1.1-3.14-6-7.36-14.86-4.48-21.88a12.47,12.47,0,0,1,3.12-4.41A10.08,10.08,0,0,1,14.38,99.72Z" style="fill:url(#linear-gradient-20)"/><path d="M48,115.48l-5.38,19.21L32,132.31l-.94,6.22,14.48,1.67v-.06a1.93,1.93,0,0,0,1.48-.46,3.18,3.18,0,0,0,1.49-2.54c.91-11,2.11-20.68,2.11-20.68Z" style="fill:#f8b7b0"/><path d="M51.34,112.27a2.35,2.35,0,0,1,1.92-.71,1.61,1.61,0,0,1,1,.92,4.72,4.72,0,0,1,.33,1.36c.12.84-2.24,3.48-4,2.64-.52-.26-2.6-.41-2.64-1A36.86,36.86,0,0,1,51.34,112.27Z" style="fill:#f8b7b0"/><path d="M51.63,112.63c0-1,5.57-3.16,5.45-2.58.11.53-2.17,1.38-2.5,1.59C53.69,112.2,53,113.48,51.63,112.63Z" style="fill:#f8b7b0"/><path d="M51.65,112.75c.48-.93,3.51-.93,4.36-.4a1.63,1.63,0,0,1,.31,1.93c-.54-.12-.32-.74-.59-1.07s-.59-.15-1-.1C53.7,113.24,52.51,114.09,51.65,112.75Z" style="fill:#f8b7b0"/><path d="M50.94,114.53c.23-1,3.17-1.76,4.13-1.46a1.63,1.63,0,0,1,.78,1.79c-.56,0-.49-.64-.84-.89s-.61,0-1,.14C53,114.5,52.1,115.61,50.94,114.53Z" style="fill:#f8b7b0"/><path d="M51.61,115c.23-.74,2.43-1.13,3.11-.86a1.21,1.21,0,0,1,.48,1.36c-.41,0-.33-.5-.57-.7s-.45,0-.72.06C53.17,115.12,52.41,115.89,51.61,115Z" style="fill:#f8b7b0"/><path d="M49.56,114a25.46,25.46,0,0,1,3.53-3.34c.95.54-.73,2.11-1,2.67s0,1.47-.42,2.11a2.15,2.15,0,0,1-1.58.92,1.72,1.72,0,0,0-.87.29" style="fill:#f8b7b0"/><path d="M32,139.14c.06-.53.69-7.87.19-8.41-1.08.6-.82-.29-1.6-.57-.59-.21-1.12.56-1.62-.18a5.09,5.09,0,0,1-2.41-.41,10.54,10.54,0,0,0-3.26-.08A5.47,5.47,0,0,0,19,131.77c-.9,1.24-1.47,2.31-.95,3.83.64,1.87,3,2.4,5,2.83a20.4,20.4,0,0,0,2.93.38,1.37,1.37,0,0,1,1.31.65c.31,0,.58-.34.87-.36.46,0,.63.38,1.08.14C29.56,139.53,31.72,139.58,32,139.14Z" style="fill:url(#linear-gradient-21)"/><path d="M8.91,261.64v.06A.13.13,0,0,0,8.91,261.64Z" style="fill:url(#linear-gradient-22)"/><polygon points="2.18 263.97 0 273.7 0.48 273.85 3.25 266.51 2.18 263.97" style="fill:url(#linear-gradient-23)"/><path d="M12.74,180.18c-2.38,3.56-.45,10.74-.57,12.78-.59,10.71,3,17.05,6.6,30.44-5.17,3.42-8.2,10.28-8.59,15.1a59.67,59.67,0,0,1-1.51,8.2c-1.1,4.56-2.54,9.49-3.55,12.73a6.1,6.1,0,0,1-1.21,1.89c1.3,4.34-.57,8.73,1.35,13.23.77,2,2.14,1.37,3.88,1a9.62,9.62,0,0,0-.2-.95c-.65-2.23.37-3.8.2-6.08A44.66,44.66,0,0,1,9,261.09h.09a91.88,91.88,0,0,1,5.45-12.54C18,241.66,21.84,234.75,24,228c4.78-6,8.64-26.13,9.38-33.72.57-5.89.76-13.69,1.18-20.89C25.09,177.85,16.44,174.65,12.74,180.18Z" style="fill:#f8b7b0"/><path d="M5.25,274.56c-1.92-4.5-.05-8.89-1.35-13.23-.71.35-1.49.3-1.87,1.41-.52,1.54.43,2.53,1.21,3.78,1.39,2.24.62,4.63.65,7,0,1.7.53,2.21,1.82,3.24s1.91.89,3.74,1.41c1.61.46,2.41-.59.83-1.64-.92-.61-1.09-.73-1.16-1C7.39,275.93,6,276.54,5.25,274.56Z" style="fill:url(#linear-gradient-24)"/><path d="M29.16,267.1v.06A.13.13,0,0,0,29.16,267.1Z" style="fill:url(#linear-gradient-25)"/><polygon points="23.86 271.87 25.63 281.68 26.13 281.63 25.83 273.79 23.86 271.87" style="fill:url(#linear-gradient-26)"/><path d="M34.21,279c-1.46-1.8-1.13-3.65-2.17-5.68-1.21-2.37-2.57-4.74-3-7a92.89,92.89,0,0,1,.16-13.48c.53-7.69,1.4-15.56.77-22.61,2.08-7.37-.52-39.46-.51-44.9,0-5.92,2.39-2.33,4.39-7.87.93-2.59.71-6.85.59-8-2.34,1.54-5.16,2-8.21,2.34-4.65.54-8.48-.56-13-2-.12.89-7.49,10.09-2.25,23.05,4.48,12.85,10,24.8,12.43,35.22-3.44,5.16-3.56,12.66-2.06,17.25a59.67,59.67,0,0,1,1.79,8.14c.75,4.58,1.33,9.61,1.66,13a6.86,6.86,0,0,1-.37,2.34c2.88,3.49,2.87,8.27,6.38,11.67,1.48,1.53,2.5.43,4-.59A9.62,9.62,0,0,0,34.21,279Z" style="fill:#f8b7b0"/><path d="M30.8,280.42c-3.51-3.4-3.5-8.17-6.38-11.67-.52.6-1.26.85-1.17,2,.12,1.62,1.38,2.16,2.58,3,2.15,1.52,2.37,4,3.32,6.21.68,1.55,1.34,1.83,2.94,2.28s2.11.08,4-.15c1.66-.2,2-1.48.13-1.84-1.08-.21-1.29-.24-1.46-.47C33.31,280.86,32.28,282,30.8,280.42Z" style="fill:url(#linear-gradient-27)"/><path d="M15.78,160.08c.2,1.41-2,5.5-3.5,9.61,2.26,2.18,7.49,3.29,11.55,3.09,3.39-.16,7.6-.55,10.85-2.16l-3.52-20.34s7.19-2.92,3.21-8.28c-3.69-5-9.88-15-13.38-14.67a4.44,4.44,0,0,0-3.67-1c-4.06.7-5.81,2.24-7.43,5.75-1.43,3.1.23,11.13,1.47,14.31Z" style="fill:url(#linear-gradient-28)"/><path d="M16,119.16l-.25,7.6,6.79,6.33a1,1,0,0,0,1.62-1.2l-1.5-3.06L23,123Z" style="fill:#f8b7b0"/><path d="M21.39,110.65c-1.58,1-4.67,2.26-6.12,6.65,0,.07-.08-.11-.1-.16l-.05,0-.37-1a1.55,1.55,0,0,0-2-.94h0a1.55,1.55,0,0,0-1,1.92l.36,1.13a1.59,1.59,0,0,0,2,1,1,1,0,0,1,1.24.67l.2.63c.68,2.17,12,3.63,12.09,1.1a60,60,0,0,0-1.88-11A19.25,19.25,0,0,0,24.7,108c-.31-.64-1.08-1.81-1.79-1.81C22.91,106.21,23.33,109.37,21.39,110.65Z" style="fill:#f8b7b0"/><path d="M34.51,168.5a40.28,40.28,0,0,0-1.1-5.25c-6.66,2.09-17.95.51-18.6,0-.61.89-1.69,2.82-2.81,5C19.36,170.62,27.06,169.84,34.51,168.5Z" style="fill:url(#linear-gradient-29)"/><path d="M34.51,168.5c-7.45,1.34-14.86,3.6-22.23,1.19a86,86,0,0,0-3.67,9c-2.26,5.77-2,9.74-.3,15.71s4.11,11.74,5.17,17.84a1.59,1.59,0,0,0,.35.9,1.55,1.55,0,0,0,.88.33,97.4,97.4,0,0,0,16.92,1c.45-6.84,1.88-13.57,2.53-20.38a206.73,206.73,0,0,0,1-21.36C35.13,172.4,34.85,170.5,34.51,168.5Z" style="fill:url(#linear-gradient-30)"/><path d="M20.64,162.64l21.83-2.39.11,2.81L18.32,171a1.56,1.56,0,0,1-2-.75l-5-28,8.11-1.61Z" style="fill:#f8b7b0"/><path d="M11.18,142.79c.56-.18,1.67-.2,2.39-.36,1.24-.27,2.45-.69,3.7-.9.64-.11,2.7-.07,3-.71-1-.61,0-.78,0-1.52,0-.56-1-.66-.45-1.37-.53-.55-.41-1.39-.53-2.1a7.6,7.6,0,0,0-1.2-2.63,5.06,5.06,0,0,0-4-2.42,5.1,5.1,0,0,0-4.24.88c-1.63,1.31-1.26,3.42-.9,5.19a14.54,14.54,0,0,0,.77,2.5,1.1,1.1,0,0,1-.15,1.33c.17.23.57.32.7.54s-.14.66.28.92C10.39,142.49,10.62,142.74,11.18,142.79Z" style="fill:url(#linear-gradient-31)"/><path d="M49,159a11.3,11.3,0,0,0,.28-2l.12-1.48c0-.1,0-.23-.1-.26a.2.2,0,0,0-.14,0c-.49.25-.59.89-.65,1.43a28.61,28.61,0,0,1-.48,3,1.5,1.5,0,0,0,0,1.07A4.17,4.17,0,0,0,49,159Z" style="fill:#b0bec5"/><path d="M42.8,159.53a25.47,25.47,0,0,1,5.62.46,1.2,1.2,0,0,1,0,.32c-.11.68-.76,1.11-1.37,1.43-1.57.85-3.91,1.93-5.21,1.54-.54-.16-1.07-.25-1.1-.81A3.27,3.27,0,0,1,42.8,159.53Z" style="fill:#f8b7b0"/><path d="M48.29,160.15h0l1.36-8.73h0a.18.18,0,0,1,.17.21L48.52,160A.23.23,0,0,1,48.29,160.15Z" style="fill:url(#linear-gradient-32)"/><polygon points="48.29 160.15 42.82 159.91 44.18 151.17 49.65 151.42 48.29 160.15" style="fill:url(#linear-gradient-33)"/><polygon points="48.18 159.18 43.22 158.95 44.38 151.49 49.34 151.72 48.18 159.18" style="fill:#e0f7fa"/><path d="M47,161.15c1.34-1.33-.41-1.15,1.7-4.27-.63-.67-1.59,1-2,1.36s-1.2.32-1.65.76a1.81,1.81,0,0,0-.45,1.48,1.45,1.45,0,0,1-.06.77" style="fill:#f8b7b0"/><path d="M170.9,274.82,88.54,257.64c-3.81,0-6.92-4.22-6.92-9.38v-221c0-5.16,3.11-9.38,6.92-9.38L171.09.41c8.8-1.86,14.35,2.91,14.35,8.06V267C185.44,272.17,178.64,275.86,170.9,274.82Z"/><path d="M170.9,274.82l-86.84-18c-3.79,0-6.89-4.2-6.89-9.33V27.59c0-5.13,3.1-9.33,6.89-9.33l87-17.85c3.79,0,6.89,4.2,6.89,9.33l-.19,255.76C177.79,270.63,174.69,274.82,170.9,274.82Z" style="fill:url(#linear-gradient-34)"/><path d="M169.27,265.16,84.46,247.5c-3.37,0-6.13-3.93-6.13-8.74v-206c0-4.81,2.76-8.74,6.13-8.74L169.24,7.34c3.37,0,6.13,3.93,6.13,8.74l0,240.33C175.4,261.23,172.64,265.16,169.27,265.16Z" style="fill:#fafcff"/><path d="M166.29,24.92,88,38.21a2.92,2.92,0,0,1-3.35-2.4h0a2.92,2.92,0,0,1,2.4-3.35l78.26-13.29a2.92,2.92,0,0,1,3.35,2.4h0A2.92,2.92,0,0,1,166.29,24.92Z" style="fill:#e6e6e6"/><path d="M149.49,42.18,88,50.81a2.92,2.92,0,0,1-3.35-2.4h0a2.92,2.92,0,0,1,2.4-3.35l61.47-8.63a2.92,2.92,0,0,1,3.35,2.4h0A2.92,2.92,0,0,1,149.49,42.18Z" style="fill:#e6e6e6"/><path d="M151.26,80.85l-53.78,2.8c-6.92,0-12.85-3-12.85-10h0c0-7.07,4.76-11.15,12.85-11.91l53.78-6.53A12.89,12.89,0,0,1,164.11,68h0A12.89,12.89,0,0,1,151.26,80.85Z" style="fill:url(#linear-gradient-35)"/><path d="M153.3,117.41l-57.86.93a10.84,10.84,0,0,1-10.81-10.81h0A10.84,10.84,0,0,1,95.44,96.73l57.86-2.8c5.94,0,10.81,5.8,10.81,11.74h0C164.11,111.62,159.24,117.41,153.3,117.41Z" style="fill:#e6e6e6"/><path d="M136.45,122,78.59,123c-5.94,0-10.81-5.8-10.81-11.74h0a10.84,10.84,0,0,1,10.81-10.81l57.86-2.8c5.94,0,10.81,5.8,10.81,11.74h0C147.25,115.31,142.39,122,136.45,122Z" style="fill:url(#linear-gradient-36)"/><path d="M153,159.22l-57.25-.93c-6.11,0-11.11-5.93-11.11-12v.27c0-6.11,5-12,11.11-12l57.25-.93c6.11,0,11.11,6.87,11.11,13v-.27C164.11,152.35,159.11,159.22,153,159.22Z" style="fill:url(#linear-gradient-37)"/><text transform="translate(90.21 76.68) scale(0.76 1)" style="font-size:9.329259872436523px;fill:#fafcff;font-family:Porto, Porto 400">A</text><text transform="translate(76.25 114.96) scale(0.76 1)" style="font-size:9.329259872436523px;fill:#fafcff;font-family:Porto, Porto 400">B</text><text transform="translate(92.12 150.2) scale(0.76 1)" style="font-size:9.329259872436523px;fill:#fafcff;font-family:Porto, Porto 400">C</text></svg>